<svg xmlns="http://www.w3.org/2000/svg" xmlns:xlink="http://www.w3.org/1999/xlink" width="1920" zoomAndPan="magnify" viewBox="0 0 1440 809.999993" height="1080" preserveAspectRatio="xMidYMid meet" version="1.0"><defs><g/><clipPath id="5432d4baa1"><path d="M 3 129.761719 L 449 129.761719 L 449 680.261719 L 3 680.261719 Z M 3 129.761719 " clip-rule="nonzero"/></clipPath></defs><g fill="#3551b9" fill-opacity="1"><g transform="translate(250.490413, 472.68167)"><g><path d="M 88.578125 -128.703125 C 93.253906 -128.703125 97.132812 -128.363281 100.21875 -127.6875 L 97.625 -95.359375 C 94.832031 -96.117188 91.441406 -96.5 87.453125 -96.5 C 76.453125 -96.5 67.882812 -93.671875 61.75 -88.015625 C 55.613281 -82.367188 52.546875 -74.460938 52.546875 -64.296875 L 52.546875 0 L 18.078125 0 L 18.078125 -126.328125 L 44.171875 -126.328125 L 49.265625 -105.078125 L 50.953125 -105.078125 C 54.867188 -112.160156 60.160156 -117.867188 66.828125 -122.203125 C 73.492188 -126.535156 80.742188 -128.703125 88.578125 -128.703125 Z M 88.578125 -128.703125 "/></g></g></g><g fill="#3551b9" fill-opacity="1"><g transform="translate(355.548681, 472.68167)"><g><path d="M 45.53125 -63.390625 C 45.53125 -50.878906 47.582031 -41.421875 51.6875 -35.015625 C 55.800781 -28.617188 62.488281 -25.421875 71.75 -25.421875 C 80.9375 -25.421875 87.546875 -28.601562 91.578125 -34.96875 C 95.609375 -41.332031 97.625 -50.804688 97.625 -63.390625 C 97.625 -75.890625 95.585938 -85.265625 91.515625 -91.515625 C 87.453125 -97.773438 80.789062 -100.90625 71.53125 -100.90625 C 62.332031 -100.90625 55.695312 -97.796875 51.625 -91.578125 C 47.5625 -85.359375 45.53125 -75.960938 45.53125 -63.390625 Z M 132.875 -63.390625 C 132.875 -42.828125 127.453125 -26.742188 116.609375 -15.140625 C 105.765625 -3.535156 90.660156 2.265625 71.296875 2.265625 C 59.171875 2.265625 48.472656 -0.390625 39.203125 -5.703125 C 29.941406 -11.015625 22.820312 -18.640625 17.84375 -28.578125 C 12.875 -38.523438 10.390625 -50.128906 10.390625 -63.390625 C 10.390625 -84.023438 15.773438 -100.066406 26.546875 -111.515625 C 37.316406 -122.972656 52.457031 -128.703125 71.96875 -128.703125 C 84.101562 -128.703125 94.800781 -126.0625 104.0625 -120.78125 C 113.332031 -115.507812 120.453125 -107.941406 125.421875 -98.078125 C 130.390625 -88.210938 132.875 -76.648438 132.875 -63.390625 Z M 132.875 -63.390625 "/></g></g></g><g fill="#3551b9" fill-opacity="1"><g transform="translate(498.789416, 472.68167)"><g><path d="M 131.1875 0 L 96.71875 0 L 96.71875 -73.78125 C 96.71875 -82.894531 95.191406 -89.726562 92.140625 -94.28125 C 89.085938 -98.84375 84.285156 -101.125 77.734375 -101.125 C 68.921875 -101.125 62.519531 -97.882812 58.53125 -91.40625 C 54.539062 -84.925781 52.546875 -74.269531 52.546875 -59.4375 L 52.546875 0 L 18.078125 0 L 18.078125 -126.328125 L 44.40625 -126.328125 L 49.03125 -110.171875 L 50.953125 -110.171875 C 54.347656 -115.960938 59.242188 -120.5 65.640625 -123.78125 C 72.046875 -127.0625 79.394531 -128.703125 87.6875 -128.703125 C 106.59375 -128.703125 119.394531 -122.523438 126.09375 -110.171875 L 129.15625 -110.171875 C 132.539062 -116.046875 137.523438 -120.601562 144.109375 -123.84375 C 150.703125 -127.082031 158.144531 -128.703125 166.4375 -128.703125 C 180.75 -128.703125 191.578125 -125.023438 198.921875 -117.671875 C 206.265625 -110.328125 209.9375 -98.5625 209.9375 -82.375 L 209.9375 0 L 175.359375 0 L 175.359375 -73.78125 C 175.359375 -82.894531 173.832031 -89.726562 170.78125 -94.28125 C 167.726562 -98.84375 162.925781 -101.125 156.375 -101.125 C 147.9375 -101.125 141.628906 -98.109375 137.453125 -92.078125 C 133.273438 -86.054688 131.1875 -76.492188 131.1875 -63.390625 Z M 131.1875 0 "/></g></g></g><g fill="#3551b9" fill-opacity="1"><g transform="translate(725.963801, 472.68167)"><g><path d="M 45.53125 -63.390625 C 45.53125 -50.878906 47.582031 -41.421875 51.6875 -35.015625 C 55.800781 -28.617188 62.488281 -25.421875 71.75 -25.421875 C 80.9375 -25.421875 87.546875 -28.601562 91.578125 -34.96875 C 95.609375 -41.332031 97.625 -50.804688 97.625 -63.390625 C 97.625 -75.890625 95.585938 -85.265625 91.515625 -91.515625 C 87.453125 -97.773438 80.789062 -100.90625 71.53125 -100.90625 C 62.332031 -100.90625 55.695312 -97.796875 51.625 -91.578125 C 47.5625 -85.359375 45.53125 -75.960938 45.53125 -63.390625 Z M 132.875 -63.390625 C 132.875 -42.828125 127.453125 -26.742188 116.609375 -15.140625 C 105.765625 -3.535156 90.660156 2.265625 71.296875 2.265625 C 59.171875 2.265625 48.472656 -0.390625 39.203125 -5.703125 C 29.941406 -11.015625 22.820312 -18.640625 17.84375 -28.578125 C 12.875 -38.523438 10.390625 -50.128906 10.390625 -63.390625 C 10.390625 -84.023438 15.773438 -100.066406 26.546875 -111.515625 C 37.316406 -122.972656 52.457031 -128.703125 71.96875 -128.703125 C 84.101562 -128.703125 94.800781 -126.0625 104.0625 -120.78125 C 113.332031 -115.507812 120.453125 -107.941406 125.421875 -98.078125 C 130.390625 -88.210938 132.875 -76.648438 132.875 -63.390625 Z M 132.875 -63.390625 "/></g></g></g><g fill="#3551b9" fill-opacity="1"><g transform="translate(869.204537, 472.68167)"><g><path d="M 90.953125 -138.421875 C 77.773438 -138.421875 67.566406 -133.46875 60.328125 -123.5625 C 53.097656 -113.65625 49.484375 -99.847656 49.484375 -82.140625 C 49.484375 -45.304688 63.304688 -26.890625 90.953125 -26.890625 C 102.554688 -26.890625 116.609375 -29.789062 133.109375 -35.59375 L 133.109375 -6.21875 C 119.546875 -0.5625 104.40625 2.265625 87.6875 2.265625 C 63.65625 2.265625 45.273438 -5.019531 32.546875 -19.59375 C 19.816406 -34.175781 13.453125 -55.101562 13.453125 -82.375 C 13.453125 -99.539062 16.578125 -114.582031 22.828125 -127.5 C 29.078125 -140.425781 38.054688 -150.332031 49.765625 -157.21875 C 61.484375 -164.113281 75.210938 -167.5625 90.953125 -167.5625 C 107.003906 -167.5625 123.125 -163.679688 139.3125 -155.921875 L 128.015625 -127.453125 C 121.835938 -130.390625 115.625 -132.953125 109.375 -135.140625 C 103.125 -137.328125 96.984375 -138.421875 90.953125 -138.421875 Z M 90.953125 -138.421875 "/></g></g></g><g fill="#3551b9" fill-opacity="1"><g transform="translate(1016.62501, 472.68167)"><g><path d="M 45.53125 -63.390625 C 45.53125 -50.878906 47.582031 -41.421875 51.6875 -35.015625 C 55.800781 -28.617188 62.488281 -25.421875 71.75 -25.421875 C 80.9375 -25.421875 87.546875 -28.601562 91.578125 -34.96875 C 95.609375 -41.332031 97.625 -50.804688 97.625 -63.390625 C 97.625 -75.890625 95.585938 -85.265625 91.515625 -91.515625 C 87.453125 -97.773438 80.789062 -100.90625 71.53125 -100.90625 C 62.332031 -100.90625 55.695312 -97.796875 51.625 -91.578125 C 47.5625 -85.359375 45.53125 -75.960938 45.53125 -63.390625 Z M 132.875 -63.390625 C 132.875 -42.828125 127.453125 -26.742188 116.609375 -15.140625 C 105.765625 -3.535156 90.660156 2.265625 71.296875 2.265625 C 59.171875 2.265625 48.472656 -0.390625 39.203125 -5.703125 C 29.941406 -11.015625 22.820312 -18.640625 17.84375 -28.578125 C 12.875 -38.523438 10.390625 -50.128906 10.390625 -63.390625 C 10.390625 -84.023438 15.773438 -100.066406 26.546875 -111.515625 C 37.316406 -122.972656 52.457031 -128.703125 71.96875 -128.703125 C 84.101562 -128.703125 94.800781 -126.0625 104.0625 -120.78125 C 113.332031 -115.507812 120.453125 -107.941406 125.421875 -98.078125 C 130.390625 -88.210938 132.875 -76.648438 132.875 -63.390625 Z M 132.875 -63.390625 "/></g></g></g><g fill="#3551b9" fill-opacity="1"><g transform="translate(1159.865746, 472.68167)"><g><path d="M 58.078125 2.265625 C 43.234375 2.265625 31.570312 -3.492188 23.09375 -15.015625 C 14.625 -26.546875 10.390625 -42.519531 10.390625 -62.9375 C 10.390625 -83.65625 14.703125 -99.796875 23.328125 -111.359375 C 31.953125 -122.921875 43.835938 -128.703125 58.984375 -128.703125 C 74.878906 -128.703125 87.003906 -122.523438 95.359375 -110.171875 L 96.5 -110.171875 C 94.757812 -119.585938 93.890625 -127.984375 93.890625 -135.359375 L 93.890625 -175.8125 L 128.46875 -175.8125 L 128.46875 0 L 102.03125 0 L 95.359375 -16.390625 L 93.890625 -16.390625 C 86.054688 -3.953125 74.117188 2.265625 58.078125 2.265625 Z M 70.171875 -25.203125 C 78.984375 -25.203125 85.441406 -27.757812 89.546875 -32.875 C 93.648438 -38 95.890625 -46.703125 96.265625 -58.984375 L 96.265625 -62.703125 C 96.265625 -76.265625 94.175781 -85.984375 90 -91.859375 C 85.820312 -97.734375 79.023438 -100.671875 69.609375 -100.671875 C 61.921875 -100.671875 55.945312 -97.410156 51.6875 -90.890625 C 47.4375 -84.378906 45.3125 -74.910156 45.3125 -62.484375 C 45.3125 -50.054688 47.457031 -40.734375 51.75 -34.515625 C 56.039062 -28.304688 62.179688 -25.203125 70.171875 -25.203125 Z M 70.171875 -25.203125 "/></g></g></g><g fill="#3551b9" fill-opacity="1"><g transform="translate(1306.269526, 472.68167)"><g><path d="M 70.390625 -104.171875 C 63.085938 -104.171875 57.363281 -101.851562 53.21875 -97.21875 C 49.070312 -92.59375 46.695312 -86.023438 46.09375 -77.515625 L 94.453125 -77.515625 C 94.304688 -86.023438 92.085938 -92.59375 87.796875 -97.21875 C 83.503906 -101.851562 77.703125 -104.171875 70.390625 -104.171875 Z M 75.25 2.265625 C 54.914062 2.265625 39.019531 -3.34375 27.5625 -14.5625 C 16.113281 -25.789062 10.390625 -41.691406 10.390625 -62.265625 C 10.390625 -83.429688 15.679688 -99.796875 26.265625 -111.359375 C 36.847656 -122.921875 51.484375 -128.703125 70.171875 -128.703125 C 88.023438 -128.703125 101.921875 -123.613281 111.859375 -113.4375 C 121.804688 -103.269531 126.78125 -89.222656 126.78125 -71.296875 L 126.78125 -54.578125 L 45.3125 -54.578125 C 45.6875 -44.785156 48.582031 -37.140625 54 -31.640625 C 59.425781 -26.140625 67.035156 -23.390625 76.828125 -23.390625 C 84.441406 -23.390625 91.632812 -24.179688 98.40625 -25.765625 C 105.1875 -27.347656 112.269531 -29.867188 119.65625 -33.328125 L 119.65625 -6.671875 C 113.632812 -3.648438 107.191406 -1.40625 100.328125 0.0625 C 93.472656 1.53125 85.113281 2.265625 75.25 2.265625 Z M 75.25 2.265625 "/></g></g></g><g clip-path="url(#5432d4baa1)"><path fill="#3551b9" d="M 277.203125 220.335938 L 276.777344 220.339844 L 275.921875 220.351562 L 275.425781 220.355469 L 274.636719 220.371094 L 274.117188 220.382812 L 273.347656 220.402344 L 272.832031 220.417969 L 272.050781 220.445312 L 271.550781 220.460938 L 270.722656 220.492188 L 270.277344 220.511719 L 269.234375 220.558594 L 269.007812 220.570312 L 267.75 220.636719 L 267.371094 220.664062 L 266.484375 220.714844 L 266 220.746094 C 266 220.746094 265.433594 220.789062 265.21875 220.800781 C 265.046875 220.816406 264.878906 220.828125 264.707031 220.84375 C 264.496094 220.859375 264.160156 220.878906 263.953125 220.898438 C 263.78125 220.910156 263.605469 220.925781 263.429688 220.9375 C 263.21875 220.957031 262.886719 220.984375 262.675781 221 C 262.507812 221.015625 262.335938 221.03125 262.167969 221.046875 C 261.953125 221.0625 261.59375 221.097656 261.378906 221.113281 C 261.222656 221.128906 261.070312 221.144531 260.914062 221.160156 C 260.683594 221.183594 260.207031 221.230469 260 221.25 C 259.890625 221.261719 259.773438 221.269531 259.660156 221.28125 C 259.398438 221.308594 258.679688 221.386719 258.421875 221.410156 C 258.308594 221.421875 258.199219 221.4375 258.097656 221.449219 C 257.886719 221.46875 257.40625 221.527344 257.175781 221.554688 C 257.019531 221.570312 256.863281 221.589844 256.703125 221.605469 C 256.496094 221.632812 256.144531 221.671875 255.929688 221.699219 C 255.757812 221.71875 255.585938 221.742188 255.417969 221.761719 C 255.210938 221.789062 254.894531 221.832031 254.6875 221.855469 C 254.507812 221.878906 254.335938 221.898438 254.160156 221.925781 C 253.949219 221.949219 253.640625 221.992188 253.4375 222.019531 C 253.257812 222.042969 253.085938 222.066406 252.914062 222.089844 C 252.703125 222.125 252.378906 222.164062 252.171875 222.195312 C 252.007812 222.222656 251.84375 222.242188 251.675781 222.269531 C 251.460938 222.300781 251.066406 222.359375 250.863281 222.390625 C 250.722656 222.410156 250.582031 222.429688 250.445312 222.453125 C 250.167969 222.496094 249.480469 222.605469 249.234375 222.640625 C 249.144531 222.65625 249.054688 222.667969 248.964844 222.683594 C 248.761719 222.71875 248.246094 222.804688 248.003906 222.839844 C 247.847656 222.867188 247.691406 222.890625 247.535156 222.917969 C 247.328125 222.953125 246.996094 223.011719 246.785156 223.046875 C 246.609375 223.078125 246.433594 223.113281 246.261719 223.136719 C 246.058594 223.175781 245.765625 223.226562 245.5625 223.261719 C 245.382812 223.292969 245.203125 223.332031 245.023438 223.363281 C 244.820312 223.398438 244.542969 223.453125 244.339844 223.488281 C 244.15625 223.523438 243.976562 223.554688 243.800781 223.59375 C 243.597656 223.628906 243.308594 223.6875 243.105469 223.722656 C 242.933594 223.757812 242.757812 223.792969 242.582031 223.828125 C 242.371094 223.871094 242.054688 223.933594 241.851562 223.972656 C 241.691406 224.003906 241.53125 224.035156 241.375 224.066406 C 241.132812 224.121094 240.632812 224.226562 240.433594 224.265625 C 240.34375 224.28125 240.238281 224.304688 240.171875 224.320312 C 240.128906 224.328125 240.082031 224.339844 240.039062 224.34375 C 239.84375 224.390625 239.242188 224.519531 238.988281 224.574219 C 238.828125 224.605469 238.671875 224.644531 238.515625 224.679688 C 238.308594 224.722656 237.996094 224.796875 237.785156 224.84375 C 237.609375 224.878906 237.4375 224.921875 237.257812 224.960938 C 237.058594 225.003906 236.792969 225.066406 236.589844 225.113281 C 236.40625 225.15625 236.222656 225.199219 236.046875 225.246094 C 235.839844 225.292969 235.589844 225.347656 235.390625 225.394531 C 235.207031 225.445312 235.027344 225.484375 234.84375 225.53125 C 234.640625 225.578125 234.386719 225.640625 234.1875 225.6875 C 234.007812 225.734375 233.828125 225.777344 233.644531 225.824219 C 233.445312 225.871094 233.167969 225.945312 232.972656 225.992188 C 232.796875 226.039062 232.632812 226.082031 232.457031 226.125 C 232.246094 226.179688 231.890625 226.273438 231.691406 226.328125 C 231.550781 226.363281 231.414062 226.394531 231.273438 226.433594 C 231.015625 226.503906 230.398438 226.667969 230.125 226.738281 C 229.976562 226.78125 229.816406 226.824219 229.660156 226.867188 C 229.46875 226.921875 229.160156 227.007812 228.949219 227.0625 C 228.777344 227.113281 228.601562 227.164062 228.425781 227.210938 C 228.226562 227.269531 227.972656 227.335938 227.773438 227.394531 C 227.597656 227.445312 227.414062 227.5 227.234375 227.550781 C 227.035156 227.609375 226.796875 227.675781 226.601562 227.734375 C 226.417969 227.785156 226.234375 227.84375 226.054688 227.894531 C 225.859375 227.953125 225.621094 228.027344 225.421875 228.082031 C 225.242188 228.136719 225.066406 228.195312 224.886719 228.246094 C 224.6875 228.304688 224.425781 228.386719 224.234375 228.445312 C 224.066406 228.496094 223.894531 228.550781 223.722656 228.601562 C 223.515625 228.667969 223.199219 228.769531 223.003906 228.828125 C 222.859375 228.875 222.707031 228.921875 222.558594 228.96875 C 222.300781 229.050781 221.6875 229.25 221.4375 229.328125 C 221.304688 229.371094 221.175781 229.417969 221.042969 229.460938 C 220.851562 229.523438 220.488281 229.640625 220.28125 229.710938 C 220.117188 229.761719 219.957031 229.820312 219.792969 229.871094 C 219.601562 229.933594 219.324219 230.027344 219.125 230.097656 C 218.957031 230.15625 218.789062 230.210938 218.617188 230.269531 C 218.425781 230.335938 218.164062 230.425781 217.972656 230.496094 C 217.800781 230.550781 217.460938 230.671875 217.460938 230.671875 L 216.8125 230.902344 L 216.316406 231.082031 L 215.648438 231.320312 L 215.175781 231.488281 L 214.429688 231.765625 L 214.042969 231.90625 L 212.914062 232.335938 L 212.804688 232.375 L 211.777344 232.769531 L 211.417969 232.910156 L 210.648438 233.214844 L 210.234375 233.375 L 209.515625 233.667969 L 209.089844 233.835938 L 208.367188 234.132812 L 207.964844 234.300781 L 207.207031 234.613281 L 206.847656 234.765625 L 205.980469 235.136719 L 205.738281 235.238281 L 204.613281 235.730469 L 203.460938 236.234375 L 203.375 236.273438 L 202.34375 236.738281 L 202.132812 236.835938 L 201.222656 237.25 L 200.980469 237.363281 L 200.085938 237.785156 L 199.863281 237.886719 L 198.925781 238.332031 L 198.757812 238.410156 L 197.671875 238.9375 C 136.238281 268.933594 93.878906 332.023438 93.878906 404.933594 C 93.878906 477.902344 136.308594 541.042969 197.832031 571.007812 L 198.929688 571.535156 L 199.023438 571.582031 L 200.050781 572.070312 L 200.175781 572.128906 L 201.207031 572.609375 L 201.304688 572.65625 L 202.433594 573.167969 C 202.820312 573.34375 203.207031 573.519531 203.59375 573.691406 L 204.71875 574.1875 L 204.929688 574.277344 L 205.824219 574.664062 L 206.167969 574.808594 L 206.925781 575.132812 L 207.332031 575.304688 L 208.042969 575.597656 L 208.480469 575.777344 L 209.167969 576.058594 L 209.609375 576.242188 L 210.3125 576.519531 L 210.738281 576.691406 L 211.558594 577.011719 L 211.882812 577.136719 L 212.964844 577.554688 L 213.453125 577.738281 L 214.089844 577.976562 L 214.632812 578.175781 L 215.214844 578.390625 L 215.785156 578.601562 L 216.347656 578.800781 L 216.929688 579.007812 L 217.484375 579.203125 L 218.074219 579.410156 L 218.617188 579.597656 L 219.21875 579.804688 L 219.753906 579.980469 L 220.371094 580.191406 L 221.453125 580.546875 L 222.078125 580.746094 L 222.589844 580.910156 L 223.222656 581.109375 L 223.746094 581.273438 L 224.375 581.464844 L 224.902344 581.628906 L 226.695312 582.160156 L 227.222656 582.3125 L 227.863281 582.496094 L 228.386719 582.648438 L 229.027344 582.824219 L 229.535156 582.964844 L 230.164062 583.140625 L 230.773438 583.300781 L 231.296875 583.441406 L 231.929688 583.605469 L 232.480469 583.75 L 233.667969 584.046875 L 234.289062 584.199219 L 234.851562 584.339844 L 235.46875 584.488281 L 236.046875 584.625 L 236.664062 584.769531 L 237.25 584.90625 L 237.855469 585.042969 L 238.488281 585.183594 L 239.046875 585.308594 L 240.1875 585.554688 L 240.742188 585.664062 L 241.394531 585.800781 L 241.96875 585.921875 L 242.601562 586.046875 L 243.1875 586.160156 L 243.816406 586.28125 L 244.402344 586.390625 L 245.039062 586.507812 L 245.613281 586.609375 L 246.277344 586.730469 L 246.832031 586.832031 L 247.550781 586.949219 L 248.050781 587.035156 L 249.238281 587.226562 L 249.597656 587.285156 L 250.46875 587.421875 L 250.96875 587.496094 L 251.695312 587.605469 L 252.234375 587.675781 L 252.933594 587.777344 L 253.480469 587.855469 L 254.179688 587.945312 L 254.722656 588.015625 L 255.441406 588.105469 L 255.960938 588.175781 L 256.730469 588.261719 L 257.203125 588.320312 L 258.191406 588.429688 L 258.445312 588.457031 L 259.679688 588.585938 L 260.089844 588.628906 L 260.929688 588.714844 L 261.421875 588.753906 L 262.183594 588.824219 L 262.703125 588.871094 L 263.445312 588.933594 L 263.972656 588.972656 L 264.722656 589.027344 L 265.234375 589.070312 L 266.023438 589.121094 L 266.5 589.152344 L 267.410156 589.210938 L 267.757812 589.230469 L 269.019531 589.296875 L 269.300781 589.308594 L 270.285156 589.355469 L 270.746094 589.378906 L 271.558594 589.410156 L 272.0625 589.425781 L 272.835938 589.449219 L 273.359375 589.464844 L 274.121094 589.488281 L 274.640625 589.496094 L 275.429688 589.507812 L 275.921875 589.519531 L 276.785156 589.527344 L 277.203125 589.535156 L 278.484375 589.535156 C 278.484375 589.535156 279.671875 589.535156 279.671875 589.535156 L 279.980469 589.527344 L 281.066406 589.519531 L 281.179688 589.519531 L 282.359375 589.496094 L 282.660156 589.488281 L 283.6875 589.464844 L 283.867188 589.460938 L 285.039062 589.417969 L 285.328125 589.410156 L 286.320312 589.371094 L 286.546875 589.363281 L 287.710938 589.308594 L 287.980469 589.292969 L 288.960938 589.242188 L 289.214844 589.230469 L 290.378906 589.15625 L 290.609375 589.140625 L 291.597656 589.074219 L 291.863281 589.058594 L 293.035156 588.96875 L 293.214844 588.953125 L 294.238281 588.871094 L 294.503906 588.847656 L 295.679688 588.746094 L 295.785156 588.734375 L 296.867188 588.628906 L 297.128906 588.601562 L 298.316406 588.484375 L 299.492188 588.351562 L 299.742188 588.320312 L 300.914062 588.183594 L 302.113281 588.035156 L 302.332031 588.007812 L 303.515625 587.851562 L 304.722656 587.683594 L 304.910156 587.65625 L 306.039062 587.488281 L 306.101562 587.480469 L 307.320312 587.289062 L 307.460938 587.269531 L 308.601562 587.085938 L 308.675781 587.070312 L 309.910156 586.867188 L 309.980469 586.851562 L 311.160156 586.648438 L 311.238281 586.632812 L 312.480469 586.40625 L 313.714844 586.171875 L 313.777344 586.160156 L 315.023438 585.914062 L 316.261719 585.660156 L 316.304688 585.648438 L 317.546875 585.386719 L 318.808594 585.109375 C 332.625 582.023438 345.863281 577.390625 358.328125 571.394531 C 366.574219 567.429688 374.484375 562.867188 382 557.761719 C 382.867188 557.171875 383.890625 556.859375 384.9375 556.859375 C 392.613281 556.859375 425.722656 556.859375 443.695312 556.859375 C 445.78125 556.855469 447.667969 558.09375 448.496094 560.007812 C 449.328125 561.921875 448.941406 564.144531 447.511719 565.664062 C 440.128906 573.457031 432.21875 580.746094 423.824219 587.46875 C 423.824219 587.46875 429.53125 604.613281 433.585938 616.824219 C 435.992188 624.039062 433.222656 631.972656 426.851562 636.121094 C 419.175781 641.046875 411.277344 645.609375 403.167969 649.769531 C 396.390625 653.207031 388.152344 651.640625 383.109375 645.964844 C 374.554688 636.359375 362.546875 622.847656 362.546875 622.847656 C 358.429688 624.453125 354.265625 625.941406 350.0625 627.308594 C 349.125 627.8125 348.132812 628.234375 347.089844 628.558594 C 336.214844 631.867188 325.109375 634.40625 313.855469 636.128906 C 313.855469 636.128906 310.222656 653.832031 307.613281 666.429688 C 306.085938 673.871094 299.734375 679.34375 292.152344 679.757812 C 287.445312 679.988281 282.738281 680.101562 278.035156 680.097656 C 273.328125 680.101562 268.621094 679.988281 263.921875 679.757812 C 256.339844 679.34375 249.984375 673.871094 248.457031 666.429688 C 245.851562 653.832031 242.210938 636.128906 242.210938 636.128906 C 230.957031 634.40625 219.855469 631.867188 208.980469 628.558594 C 207.933594 628.234375 206.945312 627.8125 206.011719 627.308594 C 201.808594 625.941406 197.644531 624.453125 193.519531 622.847656 C 193.519531 622.847656 181.519531 636.359375 172.960938 645.964844 C 167.917969 651.640625 159.675781 653.207031 152.90625 649.769531 C 144.792969 645.609375 136.890625 641.046875 129.21875 636.121094 C 122.84375 631.972656 120.078125 624.039062 122.484375 616.824219 C 126.542969 604.613281 132.242188 587.46875 132.242188 587.46875 C 118.851562 576.734375 106.675781 564.566406 95.949219 551.167969 C 95.949219 551.167969 78.796875 556.875 66.582031 560.910156 C 59.378906 563.304688 51.460938 560.546875 47.3125 554.179688 C 42.367188 546.519531 37.800781 538.621094 33.621094 530.519531 C 30.179688 523.734375 31.746094 515.488281 37.4375 510.4375 C 47.058594 501.894531 60.570312 489.894531 60.570312 489.894531 C 54.335938 473.902344 49.882812 457.273438 47.28125 440.3125 C 47.28125 440.3125 29.578125 436.671875 16.980469 434.0625 C 9.539062 432.539062 4.070312 426.183594 3.65625 418.601562 C 3.203125 409.492188 3.203125 400.371094 3.632812 391.265625 C 4.046875 383.667969 9.523438 377.308594 16.976562 375.785156 C 29.578125 373.191406 47.28125 369.554688 47.28125 369.554688 C 49.882812 352.59375 54.335938 335.964844 60.570312 319.976562 C 60.570312 319.976562 47.058594 307.976562 37.453125 299.414062 C 31.773438 294.371094 30.207031 286.132812 33.640625 279.359375 C 37.800781 271.25 42.367188 263.347656 47.289062 255.671875 C 51.445312 249.300781 59.371094 246.535156 66.585938 248.9375 C 78.796875 252.996094 95.949219 258.699219 95.949219 258.699219 C 106.675781 245.300781 118.851562 233.128906 132.242188 222.398438 C 132.242188 222.398438 126.542969 205.25 122.5 193.035156 C 120.105469 185.828125 122.871094 177.914062 129.230469 173.765625 C 136.890625 168.820312 144.792969 164.261719 152.894531 160.070312 C 159.675781 156.636719 167.929688 158.199219 172.976562 163.890625 C 177.089844 168.523438 182.003906 174.058594 186.015625 178.535156 C 190.488281 183.570312 197.546875 185.433594 203.917969 183.25 C 204.660156 183 205.40625 182.753906 206.152344 182.515625 C 207.046875 182.039062 207.992188 181.648438 208.984375 181.332031 C 217.410156 178.75 225.96875 176.640625 234.632812 175.027344 C 238.371094 173.6875 241.484375 171.074219 243.453125 167.695312 L 248.4375 143.433594 C 249.964844 135.984375 256.324219 130.496094 263.921875 130.085938 C 268.621094 129.863281 273.328125 129.761719 278.035156 129.769531 C 282.738281 129.761719 287.449219 129.863281 292.152344 130.085938 C 299.742188 130.496094 306.109375 135.984375 307.632812 143.433594 L 312.617188 167.695312 C 314.582031 171.074219 317.699219 173.6875 321.4375 175.027344 C 330.101562 176.640625 338.664062 178.75 347.085938 181.332031 C 348.078125 181.648438 349.027344 182.039062 349.921875 182.515625 C 350.664062 182.753906 351.410156 183 352.152344 183.25 C 358.523438 185.433594 365.582031 183.570312 370.058594 178.535156 C 374.0625 174.058594 378.984375 168.523438 383.09375 163.890625 C 388.144531 158.199219 396.394531 156.636719 403.175781 160.070312 C 411.277344 164.261719 419.175781 168.820312 426.835938 173.765625 C 433.199219 177.914062 435.96875 185.828125 433.566406 193.035156 C 429.53125 205.25 423.824219 222.398438 423.824219 222.398438 C 432.21875 229.125 440.128906 236.414062 447.507812 244.210938 C 448.929688 245.730469 449.316406 247.949219 448.484375 249.855469 C 447.660156 251.769531 445.777344 253.003906 443.695312 253.003906 C 425.722656 253.011719 392.613281 253.011719 384.9375 253.011719 C 383.890625 253.011719 382.867188 252.691406 382.003906 252.101562 C 374.539062 247.035156 366.679688 242.5 358.484375 238.546875 C 357.730469 238.1875 356.980469 237.824219 356.222656 237.476562 L 356.207031 237.464844 L 355.066406 236.941406 L 353.976562 236.449219 L 353.875 236.402344 L 352.765625 235.910156 L 351.699219 235.441406 L 351.53125 235.371094 L 350.441406 234.90625 L 349.390625 234.464844 L 349.179688 234.375 L 348.105469 233.933594 L 347.054688 233.511719 L 346.804688 233.40625 L 345.792969 233.007812 L 345.746094 232.988281 L 344.703125 232.582031 L 344.417969 232.476562 L 343.511719 232.132812 L 343.351562 232.066406 L 342.324219 231.6875 L 342.023438 231.578125 L 341.171875 231.269531 L 340.941406 231.183594 L 339.921875 230.820312 L 339.613281 230.714844 L 338.796875 230.425781 L 338.519531 230.332031 L 337.507812 229.988281 L 337.199219 229.882812 L 336.398438 229.617188 L 336.089844 229.511719 L 335.070312 229.183594 L 334.765625 229.082031 L 333.972656 228.832031 L 333.636719 228.726562 L 332.625 228.414062 L 332.335938 228.324219 L 331.523438 228.078125 L 331.179688 227.972656 L 330.15625 227.671875 L 329.898438 227.597656 L 329.0625 227.355469 L 328.707031 227.257812 L 327.671875 226.96875 L 327.460938 226.914062 L 326.578125 226.671875 L 326.21875 226.574219 L 325.269531 226.320312 L 325.144531 226.289062 L 325.046875 226.265625 L 324.078125 226.019531 L 323.722656 225.925781 L 322.828125 225.703125 L 322.621094 225.652344 L 321.5625 225.394531 L 321.214844 225.3125 L 320.347656 225.109375 L 320.09375 225.050781 L 319.035156 224.8125 L 318.695312 224.730469 L 317.839844 224.542969 L 317.558594 224.488281 L 316.492188 224.257812 L 316.167969 224.1875 L 315.308594 224.015625 L 315.011719 223.953125 L 313.933594 223.738281 L 313.636719 223.679688 L 312.765625 223.515625 L 312.457031 223.457031 L 311.367188 223.257812 L 311.097656 223.210938 L 310.203125 223.054688 L 309.886719 222.996094 L 308.785156 222.8125 L 308.554688 222.777344 L 307.625 222.625 L 307.304688 222.574219 L 306.191406 222.398438 L 306.019531 222.375 L 305.035156 222.234375 L 304.710938 222.1875 L 303.582031 222.027344 L 303.5 222.019531 L 302.433594 221.871094 L 302.113281 221.835938 L 301.046875 221.699219 L 300.957031 221.6875 L 299.8125 221.554688 L 299.503906 221.515625 L 298.488281 221.40625 L 298.332031 221.390625 L 297.1875 221.269531 L 296.882812 221.238281 L 295.894531 221.144531 L 295.691406 221.125 L 294.546875 221.023438 L 294.253906 221 L 293.285156 220.921875 L 293.046875 220.898438 L 291.894531 220.8125 L 291.625 220.796875 L 290.65625 220.726562 L 290.390625 220.710938 L 289.234375 220.636719 L 288.984375 220.628906 L 288.003906 220.574219 L 287.722656 220.558594 L 286.558594 220.507812 L 286.34375 220.496094 L 285.34375 220.460938 L 285.050781 220.445312 L 283.875 220.40625 L 283.707031 220.402344 L 282.671875 220.375 L 282.367188 220.371094 L 281.179688 220.351562 L 281.082031 220.351562 L 279.984375 220.339844 L 279.675781 220.335938 L 278.484375 220.328125 Z M 277.203125 220.335938 " fill-opacity="1" fill-rule="evenodd"/></g></svg>