<svg xmlns="http://www.w3.org/2000/svg" xmlns:xlink="http://www.w3.org/1999/xlink" width="1920" zoomAndPan="magnify" viewBox="0 0 1440 809.999993" height="1080" preserveAspectRatio="xMidYMid meet" version="1.0"><defs><g/><clipPath id="ae5f1d5228"><path d="M 7.449219 157.847656 L 1432.867188 157.847656 L 1432.867188 679.886719 L 7.449219 679.886719 Z M 7.449219 157.847656 " clip-rule="nonzero"/></clipPath><clipPath id="ddcbbe4f85"><path d="M 45.699219 157.847656 L 1394.300781 157.847656 C 1404.445312 157.847656 1414.171875 161.878906 1421.347656 169.050781 C 1428.519531 176.222656 1432.550781 185.953125 1432.550781 196.097656 L 1432.550781 641.636719 C 1432.550781 651.78125 1428.519531 661.511719 1421.347656 668.683594 C 1414.171875 675.859375 1404.445312 679.886719 1394.300781 679.886719 L 45.699219 679.886719 C 35.554688 679.886719 25.828125 675.859375 18.652344 668.683594 C 11.480469 661.511719 7.449219 651.78125 7.449219 641.636719 L 7.449219 196.097656 C 7.449219 185.953125 11.480469 176.222656 18.652344 169.050781 C 25.828125 161.878906 35.554688 157.847656 45.699219 157.847656 Z M 45.699219 157.847656 " clip-rule="nonzero"/></clipPath><clipPath id="970724652c"><path d="M 241.300781 227.210938 L 551.800781 227.210938 L 551.800781 610.460938 L 241.300781 610.460938 Z M 241.300781 227.210938 " clip-rule="nonzero"/></clipPath></defs><g clip-path="url(#ae5f1d5228)"><g clip-path="url(#ddcbbe4f85)"><path fill="#3551b9" d="M 7.449219 157.847656 L 1432.867188 157.847656 L 1432.867188 679.886719 L 7.449219 679.886719 Z M 7.449219 157.847656 " fill-opacity="1" fill-rule="nonzero"/></g></g><g fill="#ffffff" fill-opacity="1"><g transform="translate(413.634993, 465.996486)"><g><path d="M 61.6875 -89.609375 C 64.9375 -89.609375 67.632812 -89.375 69.78125 -88.90625 L 67.96875 -66.40625 C 66.03125 -66.925781 63.671875 -67.1875 60.890625 -67.1875 C 53.234375 -67.1875 47.265625 -65.21875 42.984375 -61.28125 C 38.710938 -57.351562 36.578125 -51.847656 36.578125 -44.765625 L 36.578125 0 L 12.59375 0 L 12.59375 -87.953125 L 30.765625 -87.953125 L 34.296875 -73.171875 L 35.484375 -73.171875 C 38.210938 -78.097656 41.894531 -82.066406 46.53125 -85.078125 C 51.175781 -88.097656 56.226562 -89.609375 61.6875 -89.609375 Z M 61.6875 -89.609375 "/></g></g></g><g fill="#ffffff" fill-opacity="1"><g transform="translate(486.790332, 465.996486)"><g><path d="M 31.703125 -44.140625 C 31.703125 -35.429688 33.128906 -28.847656 35.984375 -24.390625 C 38.847656 -19.929688 43.503906 -17.703125 49.953125 -17.703125 C 56.359375 -17.703125 60.960938 -19.914062 63.765625 -24.34375 C 66.566406 -28.78125 67.96875 -35.378906 67.96875 -44.140625 C 67.96875 -52.847656 66.550781 -59.375 63.71875 -63.71875 C 60.894531 -68.070312 56.253906 -70.25 49.796875 -70.25 C 43.398438 -70.25 38.785156 -68.085938 35.953125 -63.765625 C 33.117188 -59.441406 31.703125 -52.898438 31.703125 -44.140625 Z M 92.515625 -44.140625 C 92.515625 -29.816406 88.738281 -18.613281 81.1875 -10.53125 C 73.632812 -2.457031 63.117188 1.578125 49.640625 1.578125 C 41.203125 1.578125 33.753906 -0.269531 27.296875 -3.96875 C 20.847656 -7.664062 15.890625 -12.976562 12.421875 -19.90625 C 8.960938 -26.832031 7.234375 -34.910156 7.234375 -44.140625 C 7.234375 -58.503906 10.984375 -69.671875 18.484375 -77.640625 C 25.984375 -85.617188 36.523438 -89.609375 50.109375 -89.609375 C 58.554688 -89.609375 66.003906 -87.769531 72.453125 -84.09375 C 78.910156 -80.425781 83.867188 -75.15625 87.328125 -68.28125 C 90.785156 -61.414062 92.515625 -53.367188 92.515625 -44.140625 Z M 92.515625 -44.140625 "/></g></g></g><g fill="#ffffff" fill-opacity="1"><g transform="translate(586.533309, 465.996486)"><g><path d="M 91.34375 0 L 67.34375 0 L 67.34375 -51.375 C 67.34375 -57.71875 66.28125 -62.472656 64.15625 -65.640625 C 62.03125 -68.816406 58.6875 -70.40625 54.125 -70.40625 C 47.988281 -70.40625 43.53125 -68.148438 40.75 -63.640625 C 37.96875 -59.128906 36.578125 -51.707031 36.578125 -41.375 L 36.578125 0 L 12.59375 0 L 12.59375 -87.953125 L 30.921875 -87.953125 L 34.140625 -76.703125 L 35.484375 -76.703125 C 37.835938 -80.742188 41.242188 -83.90625 45.703125 -86.1875 C 50.160156 -88.46875 55.273438 -89.609375 61.046875 -89.609375 C 74.210938 -89.609375 83.128906 -85.304688 87.796875 -76.703125 L 89.921875 -76.703125 C 92.285156 -80.796875 95.757812 -83.96875 100.34375 -86.21875 C 104.9375 -88.476562 110.117188 -89.609375 115.890625 -89.609375 C 125.847656 -89.609375 133.382812 -87.050781 138.5 -81.9375 C 143.613281 -76.820312 146.171875 -68.628906 146.171875 -57.359375 L 146.171875 0 L 122.109375 0 L 122.109375 -51.375 C 122.109375 -57.71875 121.046875 -62.472656 118.921875 -65.640625 C 116.796875 -68.816406 113.453125 -70.40625 108.890625 -70.40625 C 103.015625 -70.40625 98.617188 -68.304688 95.703125 -64.109375 C 92.796875 -59.921875 91.34375 -53.265625 91.34375 -44.140625 Z M 91.34375 0 "/></g></g></g><g fill="#ffffff" fill-opacity="1"><g transform="translate(744.721897, 465.996486)"><g><path d="M 31.703125 -44.140625 C 31.703125 -35.429688 33.128906 -28.847656 35.984375 -24.390625 C 38.847656 -19.929688 43.503906 -17.703125 49.953125 -17.703125 C 56.359375 -17.703125 60.960938 -19.914062 63.765625 -24.34375 C 66.566406 -28.78125 67.96875 -35.378906 67.96875 -44.140625 C 67.96875 -52.847656 66.550781 -59.375 63.71875 -63.71875 C 60.894531 -68.070312 56.253906 -70.25 49.796875 -70.25 C 43.398438 -70.25 38.785156 -68.085938 35.953125 -63.765625 C 33.117188 -59.441406 31.703125 -52.898438 31.703125 -44.140625 Z M 92.515625 -44.140625 C 92.515625 -29.816406 88.738281 -18.613281 81.1875 -10.53125 C 73.632812 -2.457031 63.117188 1.578125 49.640625 1.578125 C 41.203125 1.578125 33.753906 -0.269531 27.296875 -3.96875 C 20.847656 -7.664062 15.890625 -12.976562 12.421875 -19.90625 C 8.960938 -26.832031 7.234375 -34.910156 7.234375 -44.140625 C 7.234375 -58.503906 10.984375 -69.671875 18.484375 -77.640625 C 25.984375 -85.617188 36.523438 -89.609375 50.109375 -89.609375 C 58.554688 -89.609375 66.003906 -87.769531 72.453125 -84.09375 C 78.910156 -80.425781 83.867188 -75.15625 87.328125 -68.28125 C 90.785156 -61.414062 92.515625 -53.367188 92.515625 -44.140625 Z M 92.515625 -44.140625 "/></g></g></g><g fill="#ffffff" fill-opacity="1"><g transform="translate(844.464874, 465.996486)"><g><path d="M 63.328125 -96.375 C 54.148438 -96.375 47.039062 -92.925781 42 -86.03125 C 36.96875 -79.132812 34.453125 -69.523438 34.453125 -57.203125 C 34.453125 -31.546875 44.078125 -18.71875 63.328125 -18.71875 C 71.410156 -18.71875 81.191406 -20.738281 92.671875 -24.78125 L 92.671875 -4.328125 C 83.234375 -0.390625 72.691406 1.578125 61.046875 1.578125 C 44.316406 1.578125 31.519531 -3.492188 22.65625 -13.640625 C 13.789062 -23.796875 9.359375 -38.367188 9.359375 -57.359375 C 9.359375 -69.316406 11.535156 -79.789062 15.890625 -88.78125 C 20.242188 -97.78125 26.5 -104.675781 34.65625 -109.46875 C 42.8125 -114.269531 52.367188 -116.671875 63.328125 -116.671875 C 74.503906 -116.671875 85.726562 -113.972656 97 -108.578125 L 89.140625 -88.75 C 84.835938 -90.789062 80.507812 -92.570312 76.15625 -94.09375 C 71.800781 -95.613281 67.523438 -96.375 63.328125 -96.375 Z M 63.328125 -96.375 "/></g></g></g><g fill="#ffffff" fill-opacity="1"><g transform="translate(947.118334, 465.996486)"><g><path d="M 31.703125 -44.140625 C 31.703125 -35.429688 33.128906 -28.847656 35.984375 -24.390625 C 38.847656 -19.929688 43.503906 -17.703125 49.953125 -17.703125 C 56.359375 -17.703125 60.960938 -19.914062 63.765625 -24.34375 C 66.566406 -28.78125 67.96875 -35.378906 67.96875 -44.140625 C 67.96875 -52.847656 66.550781 -59.375 63.71875 -63.71875 C 60.894531 -68.070312 56.253906 -70.25 49.796875 -70.25 C 43.398438 -70.25 38.785156 -68.085938 35.953125 -63.765625 C 33.117188 -59.441406 31.703125 -52.898438 31.703125 -44.140625 Z M 92.515625 -44.140625 C 92.515625 -29.816406 88.738281 -18.613281 81.1875 -10.53125 C 73.632812 -2.457031 63.117188 1.578125 49.640625 1.578125 C 41.203125 1.578125 33.753906 -0.269531 27.296875 -3.96875 C 20.847656 -7.664062 15.890625 -12.976562 12.421875 -19.90625 C 8.960938 -26.832031 7.234375 -34.910156 7.234375 -44.140625 C 7.234375 -58.503906 10.984375 -69.671875 18.484375 -77.640625 C 25.984375 -85.617188 36.523438 -89.609375 50.109375 -89.609375 C 58.554688 -89.609375 66.003906 -87.769531 72.453125 -84.09375 C 78.910156 -80.425781 83.867188 -75.15625 87.328125 -68.28125 C 90.785156 -61.414062 92.515625 -53.367188 92.515625 -44.140625 Z M 92.515625 -44.140625 "/></g></g></g><g fill="#ffffff" fill-opacity="1"><g transform="translate(1046.861311, 465.996486)"><g><path d="M 40.4375 1.578125 C 30.101562 1.578125 21.984375 -2.429688 16.078125 -10.453125 C 10.179688 -18.484375 7.234375 -29.609375 7.234375 -43.828125 C 7.234375 -58.242188 10.234375 -69.476562 16.234375 -77.53125 C 22.242188 -85.582031 30.519531 -89.609375 41.0625 -89.609375 C 52.132812 -89.609375 60.582031 -85.304688 66.40625 -76.703125 L 67.1875 -76.703125 C 65.976562 -83.265625 65.375 -89.113281 65.375 -94.25 L 65.375 -122.421875 L 89.453125 -122.421875 L 89.453125 0 L 71.046875 0 L 66.40625 -11.40625 L 65.375 -11.40625 C 59.925781 -2.75 51.613281 1.578125 40.4375 1.578125 Z M 48.859375 -17.546875 C 54.992188 -17.546875 59.488281 -19.328125 62.34375 -22.890625 C 65.207031 -26.460938 66.769531 -32.519531 67.03125 -41.0625 L 67.03125 -43.671875 C 67.03125 -53.109375 65.570312 -59.867188 62.65625 -63.953125 C 59.75 -68.046875 55.019531 -70.09375 48.46875 -70.09375 C 43.113281 -70.09375 38.953125 -67.820312 35.984375 -63.28125 C 33.023438 -58.75 31.546875 -52.15625 31.546875 -43.5 C 31.546875 -34.851562 33.039062 -28.363281 36.03125 -24.03125 C 39.019531 -19.707031 43.296875 -17.546875 48.859375 -17.546875 Z M 48.859375 -17.546875 "/></g></g></g><g fill="#ffffff" fill-opacity="1"><g transform="translate(1148.806815, 465.996486)"><g><path d="M 49.015625 -72.53125 C 43.921875 -72.53125 39.929688 -70.914062 37.046875 -67.6875 C 34.171875 -64.46875 32.519531 -59.894531 32.09375 -53.96875 L 65.765625 -53.96875 C 65.660156 -59.894531 64.113281 -64.46875 61.125 -67.6875 C 58.132812 -70.914062 54.097656 -72.53125 49.015625 -72.53125 Z M 52.390625 1.578125 C 38.234375 1.578125 27.164062 -2.328125 19.1875 -10.140625 C 11.21875 -17.960938 7.234375 -29.03125 7.234375 -43.34375 C 7.234375 -58.082031 10.914062 -69.476562 18.28125 -77.53125 C 25.65625 -85.582031 35.847656 -89.609375 48.859375 -89.609375 C 61.285156 -89.609375 70.957031 -86.066406 77.875 -78.984375 C 84.800781 -71.910156 88.265625 -62.128906 88.265625 -49.640625 L 88.265625 -38 L 31.546875 -38 C 31.804688 -31.175781 33.820312 -25.847656 37.59375 -22.015625 C 41.375 -18.191406 46.675781 -16.28125 53.5 -16.28125 C 58.789062 -16.28125 63.796875 -16.832031 68.515625 -17.9375 C 73.242188 -19.039062 78.175781 -20.796875 83.3125 -23.203125 L 83.3125 -4.640625 C 79.113281 -2.546875 74.628906 -0.988281 69.859375 0.03125 C 65.085938 1.0625 59.265625 1.578125 52.390625 1.578125 Z M 52.390625 1.578125 "/></g></g></g><g clip-path="url(#970724652c)"><path fill="#ffffff" d="M 432.234375 290.277344 L 431.941406 290.28125 L 431.34375 290.289062 L 430.996094 290.292969 L 430.445312 290.304688 L 430.085938 290.3125 L 429.550781 290.324219 L 429.191406 290.335938 L 428.648438 290.355469 L 428.300781 290.367188 L 427.722656 290.386719 L 427.414062 290.402344 L 426.6875 290.433594 L 426.53125 290.441406 L 425.652344 290.488281 L 425.390625 290.507812 L 424.769531 290.542969 L 424.4375 290.566406 C 424.4375 290.566406 424.039062 290.59375 423.890625 290.601562 C 423.769531 290.613281 423.652344 290.621094 423.53125 290.632812 C 423.386719 290.644531 423.15625 290.65625 423.007812 290.671875 C 422.886719 290.679688 422.769531 290.691406 422.644531 290.699219 C 422.5 290.710938 422.265625 290.730469 422.121094 290.742188 C 422.003906 290.753906 421.882812 290.761719 421.765625 290.773438 C 421.617188 290.785156 421.367188 290.808594 421.21875 290.820312 C 421.109375 290.832031 421.003906 290.84375 420.894531 290.855469 C 420.734375 290.867188 420.402344 290.902344 420.257812 290.914062 C 420.179688 290.921875 420.097656 290.929688 420.019531 290.9375 C 419.835938 290.957031 419.339844 291.011719 419.15625 291.027344 C 419.078125 291.035156 419.003906 291.046875 418.929688 291.054688 C 418.785156 291.070312 418.449219 291.109375 418.289062 291.128906 C 418.179688 291.136719 418.070312 291.152344 417.960938 291.164062 C 417.816406 291.179688 417.574219 291.210938 417.421875 291.230469 C 417.304688 291.242188 417.183594 291.257812 417.066406 291.273438 C 416.921875 291.289062 416.703125 291.320312 416.558594 291.339844 C 416.433594 291.351562 416.3125 291.367188 416.1875 291.386719 C 416.042969 291.402344 415.828125 291.433594 415.6875 291.449219 C 415.5625 291.46875 415.441406 291.484375 415.324219 291.503906 C 415.175781 291.523438 414.949219 291.554688 414.804688 291.574219 C 414.691406 291.59375 414.574219 291.609375 414.460938 291.625 C 414.308594 291.648438 414.039062 291.6875 413.894531 291.710938 C 413.796875 291.722656 413.699219 291.738281 413.605469 291.753906 C 413.410156 291.78125 412.929688 291.859375 412.757812 291.882812 C 412.699219 291.894531 412.636719 291.902344 412.574219 291.914062 C 412.429688 291.9375 412.070312 291.996094 411.902344 292.023438 C 411.792969 292.039062 411.683594 292.058594 411.574219 292.078125 C 411.433594 292.101562 411.199219 292.144531 411.054688 292.167969 C 410.929688 292.191406 410.8125 292.210938 410.691406 292.230469 C 410.550781 292.253906 410.34375 292.292969 410.203125 292.316406 C 410.078125 292.339844 409.953125 292.363281 409.828125 292.386719 C 409.6875 292.414062 409.492188 292.449219 409.351562 292.472656 C 409.222656 292.5 409.101562 292.523438 408.976562 292.546875 C 408.835938 292.574219 408.632812 292.613281 408.492188 292.636719 C 408.371094 292.664062 408.25 292.683594 408.128906 292.710938 C 407.980469 292.738281 407.761719 292.785156 407.617188 292.8125 C 407.507812 292.835938 407.394531 292.855469 407.285156 292.878906 C 407.121094 292.914062 406.769531 292.988281 406.632812 293.015625 C 406.570312 293.027344 406.496094 293.042969 406.449219 293.054688 C 406.421875 293.058594 406.386719 293.066406 406.359375 293.070312 C 406.21875 293.105469 405.800781 293.191406 405.625 293.230469 C 405.515625 293.253906 405.40625 293.277344 405.296875 293.304688 C 405.152344 293.332031 404.933594 293.382812 404.789062 293.417969 C 404.664062 293.441406 404.546875 293.472656 404.421875 293.5 C 404.28125 293.53125 404.097656 293.574219 403.957031 293.605469 C 403.828125 293.636719 403.699219 293.664062 403.578125 293.699219 C 403.433594 293.730469 403.261719 293.769531 403.121094 293.804688 C 402.992188 293.835938 402.867188 293.863281 402.738281 293.898438 C 402.597656 293.929688 402.421875 293.972656 402.285156 294.007812 C 402.15625 294.039062 402.03125 294.070312 401.90625 294.101562 C 401.765625 294.132812 401.574219 294.183594 401.4375 294.21875 C 401.316406 294.25 401.199219 294.28125 401.078125 294.308594 C 400.929688 294.347656 400.683594 294.414062 400.542969 294.453125 C 400.445312 294.476562 400.351562 294.5 400.253906 294.523438 C 400.074219 294.574219 399.644531 294.6875 399.457031 294.738281 C 399.347656 294.769531 399.242188 294.796875 399.132812 294.828125 C 398.996094 294.867188 398.78125 294.925781 398.636719 294.964844 C 398.515625 294.996094 398.390625 295.035156 398.273438 295.066406 C 398.132812 295.105469 397.953125 295.152344 397.816406 295.195312 C 397.691406 295.230469 397.566406 295.265625 397.441406 295.304688 C 397.304688 295.34375 397.136719 295.390625 397 295.429688 C 396.875 295.46875 396.746094 295.507812 396.617188 295.542969 C 396.484375 295.582031 396.316406 295.632812 396.179688 295.675781 C 396.054688 295.710938 395.929688 295.75 395.808594 295.789062 C 395.667969 295.828125 395.488281 295.886719 395.351562 295.925781 C 395.234375 295.960938 395.113281 296 394.996094 296.035156 C 394.851562 296.082031 394.628906 296.152344 394.496094 296.191406 C 394.394531 296.222656 394.289062 296.257812 394.1875 296.289062 C 394.003906 296.347656 393.578125 296.488281 393.402344 296.542969 C 393.3125 296.570312 393.222656 296.601562 393.128906 296.632812 C 392.996094 296.675781 392.746094 296.757812 392.597656 296.808594 C 392.484375 296.84375 392.375 296.882812 392.261719 296.917969 C 392.125 296.964844 391.933594 297.027344 391.792969 297.078125 C 391.679688 297.117188 391.5625 297.15625 391.441406 297.195312 C 391.304688 297.242188 391.125 297.304688 390.992188 297.351562 C 390.875 297.394531 390.636719 297.476562 390.636719 297.476562 L 390.183594 297.636719 L 389.839844 297.761719 L 389.375 297.929688 L 389.046875 298.042969 L 388.523438 298.238281 L 388.253906 298.335938 L 387.46875 298.632812 L 387.390625 298.664062 L 386.425781 299.035156 L 385.890625 299.246094 L 385.605469 299.359375 L 385.101562 299.5625 L 384.808594 299.679688 L 384.304688 299.886719 L 384.023438 300.003906 L 383.496094 300.222656 L 383.246094 300.328125 L 382.640625 300.585938 L 382.472656 300.65625 L 381.691406 300.996094 L 380.886719 301.351562 L 380.828125 301.375 L 380.109375 301.699219 L 379.960938 301.769531 L 379.328125 302.058594 L 379.160156 302.136719 L 378.539062 302.429688 L 378.382812 302.5 L 377.730469 302.8125 L 377.613281 302.867188 L 376.855469 303.234375 C 334.078125 324.117188 304.582031 368.050781 304.582031 418.820312 C 304.582031 469.628906 334.128906 513.59375 376.96875 534.460938 L 377.734375 534.828125 L 377.796875 534.859375 L 378.511719 535.199219 L 378.597656 535.238281 L 379.316406 535.574219 L 379.386719 535.605469 L 380.171875 535.964844 C 380.441406 536.085938 380.710938 536.207031 380.980469 536.328125 L 381.761719 536.671875 L 381.910156 536.734375 L 382.53125 537.003906 L 382.773438 537.105469 L 383.300781 537.332031 L 383.585938 537.453125 L 384.078125 537.65625 L 384.382812 537.78125 L 384.863281 537.976562 L 385.167969 538.105469 L 385.660156 538.296875 L 385.953125 538.417969 L 386.527344 538.640625 L 386.75 538.726562 L 387.503906 539.019531 L 387.84375 539.144531 L 388.289062 539.3125 L 388.667969 539.453125 L 389.070312 539.601562 L 389.46875 539.746094 L 389.859375 539.886719 L 390.265625 540.03125 L 390.652344 540.164062 L 391.0625 540.3125 L 391.441406 540.441406 L 391.859375 540.585938 L 392.230469 540.707031 L 392.660156 540.855469 L 393.414062 541.101562 L 393.851562 541.238281 L 394.207031 541.355469 L 394.648438 541.496094 L 395.011719 541.605469 L 395.449219 541.742188 L 395.816406 541.855469 L 396.257812 541.984375 L 396.625 542.09375 L 397.066406 542.226562 L 397.433594 542.332031 L 397.878906 542.460938 L 398.242188 542.566406 L 398.691406 542.6875 L 399.042969 542.785156 L 399.480469 542.90625 L 399.90625 543.019531 L 400.269531 543.117188 L 400.710938 543.230469 L 401.09375 543.332031 L 401.921875 543.539062 L 402.351562 543.644531 L 402.746094 543.746094 L 403.175781 543.847656 L 403.578125 543.941406 L 404.007812 544.042969 L 404.414062 544.136719 L 404.835938 544.230469 L 405.277344 544.332031 L 405.667969 544.417969 L 406.460938 544.589844 L 406.847656 544.664062 L 407.300781 544.761719 L 407.703125 544.84375 L 408.140625 544.929688 L 408.550781 545.011719 L 408.988281 545.09375 L 409.394531 545.171875 L 409.839844 545.25 L 410.238281 545.324219 L 410.703125 545.410156 L 411.089844 545.476562 L 411.585938 545.5625 L 411.9375 545.621094 L 412.761719 545.753906 L 413.015625 545.792969 L 413.617188 545.890625 L 413.96875 545.941406 L 414.472656 546.015625 L 414.847656 546.066406 L 415.335938 546.136719 L 415.714844 546.191406 L 416.203125 546.253906 L 416.582031 546.304688 L 417.082031 546.367188 L 417.445312 546.414062 L 417.980469 546.476562 L 418.308594 546.515625 L 418.996094 546.589844 L 419.175781 546.609375 L 420.035156 546.699219 L 420.316406 546.730469 L 420.902344 546.789062 L 421.246094 546.816406 L 421.777344 546.863281 L 422.136719 546.898438 L 422.65625 546.941406 L 423.023438 546.96875 L 423.542969 547.007812 L 423.902344 547.035156 L 424.449219 547.070312 L 424.78125 547.09375 L 425.414062 547.132812 L 425.660156 547.148438 L 426.535156 547.195312 L 426.734375 547.203125 L 427.417969 547.234375 L 427.738281 547.25 L 428.304688 547.273438 L 428.65625 547.285156 L 429.195312 547.300781 L 429.558594 547.3125 L 430.089844 547.328125 L 430.449219 547.335938 L 431 547.339844 L 431.34375 547.347656 L 431.945312 547.355469 L 432.234375 547.359375 L 433.125 547.359375 C 433.125 547.359375 433.953125 547.359375 433.953125 547.359375 L 434.167969 547.355469 L 434.925781 547.347656 L 435.003906 547.347656 L 435.824219 547.335938 L 436.035156 547.328125 L 436.75 547.3125 L 436.878906 547.308594 L 437.691406 547.28125 L 437.894531 547.273438 L 438.585938 547.246094 L 438.742188 547.238281 L 439.554688 547.203125 L 439.738281 547.191406 L 440.421875 547.15625 L 440.597656 547.148438 L 441.410156 547.097656 L 441.570312 547.085938 L 442.257812 547.039062 L 442.445312 547.027344 L 443.261719 546.964844 L 443.382812 546.957031 L 444.097656 546.898438 L 444.28125 546.882812 L 445.101562 546.808594 L 445.175781 546.804688 L 445.929688 546.730469 L 446.109375 546.710938 L 446.9375 546.628906 L 447.757812 546.535156 L 447.929688 546.515625 L 448.746094 546.421875 L 449.582031 546.316406 L 449.734375 546.296875 L 450.554688 546.1875 L 451.398438 546.070312 L 451.527344 546.054688 L 452.316406 545.9375 L 452.359375 545.929688 L 453.207031 545.796875 L 453.304688 545.785156 L 454.097656 545.65625 L 454.148438 545.644531 L 455.007812 545.503906 L 455.058594 545.492188 L 455.878906 545.351562 L 455.933594 545.339844 L 456.800781 545.183594 L 457.660156 545.019531 L 457.703125 545.011719 L 458.570312 544.839844 L 459.433594 544.660156 L 459.460938 544.65625 L 460.328125 544.472656 L 461.207031 544.28125 C 470.824219 542.132812 480.042969 538.90625 488.726562 534.730469 C 494.464844 531.96875 499.976562 528.789062 505.207031 525.238281 C 505.8125 524.824219 506.527344 524.609375 507.253906 524.609375 C 512.597656 524.609375 535.652344 524.609375 548.167969 524.609375 C 549.621094 524.605469 550.933594 525.464844 551.511719 526.800781 C 552.089844 528.132812 551.820312 529.679688 550.824219 530.738281 C 545.683594 536.164062 540.175781 541.238281 534.332031 545.921875 C 534.332031 545.921875 538.304688 557.859375 541.128906 566.363281 C 542.804688 571.386719 540.875 576.910156 536.441406 579.800781 C 531.09375 583.230469 525.59375 586.40625 519.945312 589.304688 C 515.226562 591.695312 509.492188 590.605469 505.980469 586.652344 C 500.023438 579.964844 491.664062 570.554688 491.664062 570.554688 C 488.792969 571.675781 485.894531 572.710938 482.96875 573.664062 C 482.316406 574.015625 481.625 574.308594 480.898438 574.53125 C 473.328125 576.835938 465.59375 578.605469 457.757812 579.804688 C 457.757812 579.804688 455.226562 592.132812 453.410156 600.902344 C 452.347656 606.085938 447.925781 609.898438 442.644531 610.183594 C 439.367188 610.34375 436.089844 610.425781 432.8125 610.421875 C 429.535156 610.425781 426.261719 610.34375 422.988281 610.183594 C 417.707031 609.898438 413.285156 606.085938 412.21875 600.902344 C 410.402344 592.132812 407.871094 579.804688 407.871094 579.804688 C 400.035156 578.605469 392.304688 576.835938 384.730469 574.53125 C 384.003906 574.308594 383.316406 574.015625 382.664062 573.664062 C 379.734375 572.710938 376.835938 571.675781 373.964844 570.554688 C 373.964844 570.554688 365.609375 579.964844 359.648438 586.652344 C 356.136719 590.605469 350.398438 591.695312 345.683594 589.304688 C 340.035156 586.40625 334.53125 583.230469 329.191406 579.800781 C 324.753906 576.910156 322.828125 571.386719 324.5 566.363281 C 327.328125 557.859375 331.296875 545.921875 331.296875 545.921875 C 321.972656 538.445312 313.496094 529.972656 306.023438 520.644531 C 306.023438 520.644531 294.082031 524.617188 285.574219 527.429688 C 280.558594 529.097656 275.046875 527.175781 272.160156 522.742188 C 268.714844 517.410156 265.535156 511.90625 262.625 506.269531 C 260.226562 501.542969 261.320312 495.800781 265.28125 492.28125 C 271.980469 486.332031 281.390625 477.976562 281.390625 477.976562 C 277.046875 466.84375 273.945312 455.265625 272.136719 443.453125 C 272.136719 443.453125 259.808594 440.921875 251.039062 439.101562 C 245.855469 438.039062 242.046875 433.617188 241.761719 428.335938 C 241.445312 421.996094 241.445312 415.640625 241.742188 409.300781 C 242.03125 404.011719 245.84375 399.585938 251.035156 398.519531 C 259.808594 396.714844 272.136719 394.183594 272.136719 394.183594 C 273.945312 382.375 277.046875 370.796875 281.390625 359.660156 C 281.390625 359.660156 271.980469 351.304688 265.292969 345.34375 C 261.335938 341.832031 260.246094 336.097656 262.636719 331.378906 C 265.535156 325.730469 268.714844 320.230469 272.140625 314.882812 C 275.035156 310.449219 280.554688 308.523438 285.578125 310.195312 C 294.082031 313.019531 306.023438 316.992188 306.023438 316.992188 C 313.496094 307.664062 321.972656 299.1875 331.296875 291.71875 C 331.296875 291.71875 327.328125 279.773438 324.511719 271.269531 C 322.84375 266.25 324.769531 260.738281 329.199219 257.851562 C 334.53125 254.40625 340.035156 251.234375 345.675781 248.316406 C 350.398438 245.925781 356.144531 247.011719 359.660156 250.972656 C 362.523438 254.199219 365.945312 258.054688 368.738281 261.171875 C 371.851562 264.679688 376.769531 265.976562 381.207031 264.457031 C 381.722656 264.28125 382.242188 264.109375 382.761719 263.945312 C 383.382812 263.613281 384.042969 263.339844 384.734375 263.121094 C 390.601562 261.320312 396.558594 259.855469 402.59375 258.730469 C 405.195312 257.796875 407.363281 255.976562 408.734375 253.625 L 412.207031 236.730469 C 413.269531 231.542969 417.695312 227.722656 422.988281 227.4375 C 426.261719 227.28125 429.535156 227.210938 432.8125 227.21875 C 436.089844 227.210938 439.371094 227.28125 442.644531 227.4375 C 447.929688 227.722656 452.363281 231.542969 453.425781 236.730469 L 456.894531 253.625 C 458.265625 255.976562 460.433594 257.796875 463.039062 258.730469 C 469.070312 259.855469 475.03125 261.320312 480.898438 263.121094 C 481.589844 263.339844 482.246094 263.613281 482.871094 263.945312 C 483.386719 264.109375 483.90625 264.28125 484.425781 264.457031 C 488.859375 265.976562 493.773438 264.679688 496.890625 261.171875 C 499.679688 258.054688 503.105469 254.199219 505.96875 250.972656 C 509.484375 247.011719 515.230469 245.925781 519.953125 248.316406 C 525.59375 251.234375 531.09375 254.40625 536.429688 257.851562 C 540.859375 260.738281 542.785156 266.25 541.113281 271.269531 C 538.304688 279.773438 534.332031 291.71875 534.332031 291.71875 C 540.175781 296.398438 545.683594 301.476562 550.820312 306.902344 C 551.8125 307.960938 552.082031 309.507812 551.503906 310.835938 C 550.925781 312.167969 549.617188 313.027344 548.167969 313.027344 C 535.652344 313.03125 512.597656 313.03125 507.253906 313.03125 C 506.527344 313.03125 505.8125 312.808594 505.210938 312.398438 C 500.011719 308.871094 494.539062 305.710938 488.835938 302.960938 C 488.308594 302.707031 487.785156 302.457031 487.257812 302.214844 L 487.246094 302.207031 L 486.453125 301.84375 L 485.695312 301.5 L 485.621094 301.46875 L 484.851562 301.125 L 484.109375 300.796875 L 483.992188 300.75 L 483.234375 300.425781 L 482.503906 300.117188 L 482.351562 300.054688 L 481.605469 299.75 L 480.875 299.453125 L 480.699219 299.382812 L 479.996094 299.105469 L 479.964844 299.089844 L 479.238281 298.804688 L 479.039062 298.734375 L 478.40625 298.492188 L 478.296875 298.449219 L 477.578125 298.183594 L 477.371094 298.105469 L 476.777344 297.890625 L 476.617188 297.832031 L 475.910156 297.578125 L 475.695312 297.507812 L 475.125 297.304688 L 474.933594 297.238281 L 474.226562 297 L 474.011719 296.925781 L 473.453125 296.742188 L 473.238281 296.667969 L 472.53125 296.4375 L 472.320312 296.371094 L 471.765625 296.195312 L 471.53125 296.121094 L 470.824219 295.902344 L 470.625 295.84375 L 470.0625 295.671875 L 469.820312 295.597656 L 469.105469 295.386719 L 468.929688 295.335938 L 468.347656 295.167969 L 468.097656 295.097656 L 467.378906 294.898438 L 467.230469 294.859375 L 466.617188 294.691406 L 466.367188 294.621094 L 465.707031 294.449219 L 465.621094 294.425781 L 465.550781 294.40625 L 464.875 294.238281 L 464.628906 294.171875 L 464.007812 294.019531 L 463.859375 293.980469 L 463.125 293.804688 L 462.882812 293.746094 L 462.277344 293.601562 L 462.101562 293.5625 L 461.363281 293.394531 L 461.125 293.339844 L 460.53125 293.210938 L 460.335938 293.167969 L 459.59375 293.007812 L 459.367188 292.960938 L 458.769531 292.84375 L 458.5625 292.796875 L 457.8125 292.648438 L 457.605469 292.609375 L 456.996094 292.492188 L 456.78125 292.453125 L 456.023438 292.3125 L 455.835938 292.28125 L 455.214844 292.171875 L 454.996094 292.132812 L 454.226562 292.003906 L 454.066406 291.980469 L 453.417969 291.875 L 453.195312 291.835938 L 452.421875 291.71875 L 452.300781 291.699219 L 451.617188 291.601562 L 451.390625 291.566406 L 450.605469 291.457031 L 450.546875 291.449219 L 449.804688 291.347656 L 449.582031 291.324219 L 448.835938 291.230469 L 448.777344 291.222656 L 447.980469 291.128906 L 447.765625 291.101562 L 447.058594 291.023438 L 446.949219 291.015625 L 446.152344 290.929688 L 445.941406 290.910156 L 445.25 290.84375 L 445.109375 290.828125 L 444.3125 290.757812 L 444.109375 290.742188 L 443.433594 290.6875 L 443.265625 290.671875 L 442.464844 290.609375 L 442.277344 290.597656 L 441.601562 290.550781 L 441.417969 290.539062 L 440.613281 290.488281 L 440.4375 290.484375 L 439.757812 290.445312 L 439.5625 290.433594 L 438.75 290.398438 L 438.597656 290.390625 L 437.902344 290.367188 L 437.699219 290.355469 L 436.878906 290.328125 L 436.765625 290.324219 L 436.042969 290.308594 L 435.832031 290.304688 L 435.003906 290.289062 L 434.9375 290.289062 L 434.171875 290.28125 L 433.957031 290.277344 L 433.125 290.273438 Z M 432.234375 290.277344 " fill-opacity="1" fill-rule="evenodd"/></g></svg>