<svg xmlns="http://www.w3.org/2000/svg" xmlns:xlink="http://www.w3.org/1999/xlink" width="500" zoomAndPan="magnify" viewBox="0 0 375 374.999991" height="500" preserveAspectRatio="xMidYMid meet" version="1.0"><defs><g/><clipPath id="b7e56ff98e"><path d="M 7.796875 0 L 367.203125 0 L 367.203125 375 L 7.796875 375 Z M 7.796875 0 " clip-rule="nonzero"/></clipPath><clipPath id="de03c75ec1"><path d="M 46.046875 0 L 328.953125 0 C 339.097656 0 348.828125 4.03125 356 11.203125 C 363.175781 18.375 367.203125 28.105469 367.203125 38.25 L 367.203125 336.75 C 367.203125 346.894531 363.175781 356.625 356 363.796875 C 348.828125 370.96875 339.097656 375 328.953125 375 L 46.046875 375 C 35.902344 375 26.171875 370.96875 19 363.796875 C 11.824219 356.625 7.796875 346.894531 7.796875 336.75 L 7.796875 38.25 C 7.796875 28.105469 11.824219 18.375 19 11.203125 C 26.171875 4.03125 35.902344 0 46.046875 0 Z M 46.046875 0 " clip-rule="nonzero"/></clipPath><clipPath id="2b82c96813"><path d="M 57.375 38.082031 L 295 38.082031 L 295 331.332031 L 57.375 331.332031 Z M 57.375 38.082031 " clip-rule="nonzero"/></clipPath></defs><g clip-path="url(#b7e56ff98e)"><g clip-path="url(#de03c75ec1)"><path fill="#3551b9" d="M 7.796875 0 L 367.203125 0 L 367.203125 374.851562 L 7.796875 374.851562 Z M 7.796875 0 " fill-opacity="1" fill-rule="nonzero"/></g></g><g clip-path="url(#2b82c96813)"><path fill="#ffffff" d="M 203.488281 86.34375 L 203.261719 86.347656 L 202.804688 86.351562 L 202.539062 86.355469 L 202.117188 86.363281 L 201.84375 86.367188 L 201.433594 86.378906 L 201.15625 86.386719 L 200.742188 86.402344 L 200.476562 86.410156 L 200.035156 86.425781 L 199.796875 86.4375 L 199.242188 86.464844 L 199.121094 86.46875 L 198.449219 86.503906 L 198.25 86.519531 L 197.773438 86.546875 L 197.519531 86.5625 C 197.519531 86.5625 197.214844 86.585938 197.101562 86.589844 C 197.007812 86.601562 196.917969 86.605469 196.828125 86.613281 C 196.714844 86.621094 196.539062 86.632812 196.425781 86.644531 C 196.335938 86.648438 196.242188 86.65625 196.148438 86.664062 C 196.035156 86.675781 195.859375 86.6875 195.746094 86.695312 C 195.65625 86.707031 195.566406 86.714844 195.476562 86.722656 C 195.363281 86.730469 195.167969 86.75 195.054688 86.757812 C 194.972656 86.765625 194.890625 86.773438 194.808594 86.785156 C 194.683594 86.792969 194.429688 86.820312 194.320312 86.832031 C 194.261719 86.835938 194.199219 86.84375 194.140625 86.847656 C 194 86.863281 193.617188 86.902344 193.480469 86.917969 C 193.421875 86.921875 193.363281 86.929688 193.304688 86.9375 C 193.195312 86.949219 192.9375 86.980469 192.816406 86.992188 C 192.730469 87 192.648438 87.011719 192.566406 87.019531 C 192.453125 87.035156 192.265625 87.054688 192.152344 87.070312 C 192.058594 87.082031 191.96875 87.09375 191.878906 87.105469 C 191.769531 87.117188 191.601562 87.140625 191.488281 87.152344 C 191.394531 87.164062 191.300781 87.175781 191.207031 87.191406 C 191.097656 87.203125 190.933594 87.226562 190.824219 87.242188 C 190.730469 87.253906 190.636719 87.265625 190.542969 87.28125 C 190.433594 87.296875 190.261719 87.320312 190.148438 87.335938 C 190.0625 87.347656 189.972656 87.359375 189.882812 87.375 C 189.769531 87.390625 189.5625 87.421875 189.453125 87.4375 C 189.378906 87.449219 189.300781 87.460938 189.230469 87.472656 C 189.082031 87.492188 188.714844 87.550781 188.582031 87.570312 C 188.535156 87.582031 188.488281 87.585938 188.441406 87.59375 C 188.332031 87.613281 188.054688 87.660156 187.929688 87.679688 C 187.84375 87.691406 187.761719 87.707031 187.675781 87.71875 C 187.570312 87.738281 187.390625 87.769531 187.277344 87.789062 C 187.183594 87.804688 187.09375 87.824219 187 87.835938 C 186.890625 87.855469 186.734375 87.882812 186.628906 87.902344 C 186.53125 87.921875 186.433594 87.941406 186.339844 87.957031 C 186.230469 87.976562 186.082031 88.003906 185.976562 88.023438 C 185.878906 88.042969 185.78125 88.058594 185.6875 88.078125 C 185.578125 88.097656 185.425781 88.128906 185.316406 88.148438 C 185.226562 88.167969 185.132812 88.183594 185.039062 88.203125 C 184.925781 88.226562 184.757812 88.261719 184.648438 88.28125 C 184.566406 88.300781 184.480469 88.316406 184.394531 88.332031 C 184.265625 88.359375 184 88.417969 183.894531 88.4375 C 183.847656 88.445312 183.789062 88.457031 183.753906 88.464844 C 183.730469 88.472656 183.707031 88.476562 183.683594 88.480469 C 183.578125 88.503906 183.257812 88.574219 183.125 88.601562 C 183.039062 88.621094 182.957031 88.640625 182.871094 88.660156 C 182.761719 88.679688 182.59375 88.71875 182.484375 88.746094 C 182.390625 88.765625 182.296875 88.785156 182.203125 88.808594 C 182.097656 88.832031 181.953125 88.863281 181.847656 88.890625 C 181.75 88.914062 181.652344 88.933594 181.554688 88.960938 C 181.449219 88.984375 181.3125 89.015625 181.207031 89.039062 C 181.109375 89.066406 181.011719 89.085938 180.914062 89.113281 C 180.808594 89.136719 180.671875 89.171875 180.566406 89.195312 C 180.46875 89.222656 180.375 89.242188 180.277344 89.269531 C 180.171875 89.292969 180.023438 89.332031 179.917969 89.359375 C 179.824219 89.382812 179.738281 89.40625 179.644531 89.425781 C 179.53125 89.457031 179.339844 89.507812 179.234375 89.535156 C 179.160156 89.554688 179.085938 89.574219 179.011719 89.59375 C 178.875 89.632812 178.546875 89.71875 178.402344 89.757812 C 178.320312 89.777344 178.238281 89.800781 178.15625 89.824219 C 178.050781 89.855469 177.886719 89.898438 177.777344 89.929688 C 177.683594 89.953125 177.589844 89.980469 177.496094 90.007812 C 177.390625 90.039062 177.253906 90.074219 177.148438 90.105469 C 177.054688 90.132812 176.957031 90.160156 176.863281 90.1875 C 176.753906 90.21875 176.628906 90.253906 176.523438 90.285156 C 176.425781 90.3125 176.328125 90.34375 176.230469 90.371094 C 176.128906 90.402344 176 90.441406 175.894531 90.472656 C 175.800781 90.5 175.707031 90.53125 175.609375 90.558594 C 175.503906 90.589844 175.367188 90.632812 175.261719 90.664062 C 175.171875 90.691406 175.082031 90.71875 174.988281 90.75 C 174.878906 90.785156 174.710938 90.835938 174.609375 90.867188 C 174.53125 90.894531 174.449219 90.917969 174.371094 90.941406 C 174.230469 90.988281 173.90625 91.09375 173.773438 91.136719 C 173.703125 91.15625 173.632812 91.183594 173.5625 91.207031 C 173.460938 91.238281 173.265625 91.304688 173.15625 91.339844 C 173.070312 91.367188 172.984375 91.398438 172.898438 91.425781 C 172.792969 91.457031 172.644531 91.507812 172.539062 91.546875 C 172.449219 91.574219 172.363281 91.605469 172.269531 91.636719 C 172.167969 91.671875 172.027344 91.71875 171.925781 91.757812 C 171.835938 91.789062 171.652344 91.851562 171.652344 91.851562 L 171.308594 91.972656 L 171.042969 92.070312 L 170.6875 92.195312 L 170.4375 92.285156 L 170.039062 92.433594 L 169.832031 92.507812 L 169.230469 92.738281 L 169.171875 92.761719 L 168.625 92.96875 L 168.433594 93.042969 L 168.023438 93.207031 L 167.804688 93.292969 L 167.417969 93.449219 L 167.195312 93.539062 L 166.808594 93.695312 L 166.59375 93.785156 L 166.191406 93.953125 L 166 94.03125 L 165.535156 94.230469 L 165.40625 94.285156 L 164.808594 94.546875 L 164.191406 94.816406 L 164.148438 94.835938 L 163.597656 95.082031 L 163.484375 95.136719 L 163 95.355469 L 162.871094 95.417969 L 162.394531 95.640625 L 162.277344 95.695312 L 161.777344 95.933594 L 161.6875 95.976562 L 161.109375 96.257812 C 128.375 112.238281 105.800781 145.855469 105.800781 184.707031 C 105.800781 223.589844 128.414062 257.230469 161.195312 273.199219 L 161.78125 273.480469 L 161.832031 273.503906 L 162.375 273.765625 L 162.441406 273.796875 L 162.992188 274.050781 L 163.042969 274.078125 L 163.648438 274.347656 C 163.851562 274.445312 164.058594 274.535156 164.265625 274.628906 L 164.863281 274.894531 L 164.976562 274.941406 L 165.453125 275.144531 L 165.636719 275.222656 L 166.039062 275.398438 L 166.257812 275.488281 L 166.636719 275.644531 L 166.867188 275.738281 L 167.234375 275.890625 L 167.46875 275.988281 L 167.84375 276.136719 L 168.070312 276.226562 L 168.507812 276.398438 L 168.679688 276.464844 L 169.257812 276.6875 L 169.515625 276.785156 L 169.855469 276.914062 L 170.148438 277.019531 L 170.457031 277.132812 L 170.761719 277.246094 L 171.0625 277.351562 L 171.371094 277.460938 L 171.664062 277.566406 L 171.980469 277.675781 L 172.269531 277.777344 L 172.589844 277.886719 L 172.875 277.980469 L 173.203125 278.089844 L 173.78125 278.28125 L 174.113281 278.386719 L 174.386719 278.476562 L 174.726562 278.582031 L 175.003906 278.667969 L 175.335938 278.769531 L 175.617188 278.859375 L 175.957031 278.957031 L 176.238281 279.042969 L 176.574219 279.140625 L 176.855469 279.222656 L 177.195312 279.320312 L 177.472656 279.402344 L 177.816406 279.496094 L 178.085938 279.570312 L 178.421875 279.664062 L 178.746094 279.75 L 179.027344 279.824219 L 179.363281 279.910156 L 179.65625 279.988281 L 179.992188 280.074219 L 180.289062 280.148438 L 180.621094 280.226562 L 180.921875 280.304688 L 181.25 280.382812 L 181.554688 280.453125 L 181.886719 280.53125 L 182.195312 280.605469 L 182.519531 280.675781 L 182.859375 280.753906 L 183.15625 280.820312 L 183.761719 280.949219 L 184.058594 281.007812 L 184.40625 281.082031 L 184.714844 281.144531 L 185.050781 281.210938 L 185.363281 281.273438 L 185.695312 281.335938 L 186.007812 281.394531 L 186.347656 281.457031 L 186.65625 281.511719 L 187.007812 281.578125 L 187.304688 281.628906 L 187.6875 281.695312 L 187.953125 281.738281 L 188.585938 281.839844 L 188.777344 281.871094 L 189.242188 281.945312 L 189.507812 281.984375 L 189.894531 282.042969 L 190.183594 282.082031 L 190.554688 282.132812 L 190.84375 282.175781 L 191.21875 282.222656 L 191.507812 282.261719 L 191.890625 282.308594 L 192.167969 282.347656 L 192.578125 282.394531 L 192.828125 282.425781 L 193.355469 282.484375 L 193.492188 282.496094 L 194.367188 282.589844 L 194.816406 282.632812 L 195.078125 282.65625 L 195.484375 282.691406 L 195.761719 282.714844 L 196.15625 282.75 L 196.4375 282.773438 L 196.835938 282.800781 L 197.109375 282.824219 L 197.53125 282.851562 L 197.785156 282.867188 L 198.269531 282.898438 L 198.453125 282.910156 L 199.125 282.945312 L 199.277344 282.949219 L 199.800781 282.976562 L 200.046875 282.988281 L 200.480469 283.003906 L 200.746094 283.011719 L 201.160156 283.027344 L 201.4375 283.035156 L 201.84375 283.046875 L 202.121094 283.050781 L 202.542969 283.054688 L 202.804688 283.0625 L 203.265625 283.066406 L 203.488281 283.070312 L 204.167969 283.070312 C 204.167969 283.070312 204.800781 283.070312 204.800781 283.070312 L 204.964844 283.066406 L 205.546875 283.0625 L 205.605469 283.0625 L 206.234375 283.050781 L 206.394531 283.046875 L 206.941406 283.035156 L 207.039062 283.03125 L 207.664062 283.007812 L 207.816406 283.003906 L 208.347656 282.984375 L 208.464844 282.976562 L 209.085938 282.949219 L 209.230469 282.941406 L 209.753906 282.914062 L 209.886719 282.910156 L 210.507812 282.871094 L 210.628906 282.863281 L 211.15625 282.824219 L 211.300781 282.816406 L 211.921875 282.769531 L 212.019531 282.761719 L 212.5625 282.714844 L 212.707031 282.707031 L 213.332031 282.648438 L 213.390625 282.644531 L 213.964844 282.589844 L 214.105469 282.574219 L 214.738281 282.511719 L 215.363281 282.441406 L 215.496094 282.425781 L 216.121094 282.351562 L 216.761719 282.269531 L 216.878906 282.257812 L 217.507812 282.171875 L 218.148438 282.085938 L 218.25 282.070312 L 218.851562 281.980469 L 218.886719 281.976562 L 219.535156 281.875 L 219.609375 281.863281 L 220.21875 281.765625 L 220.257812 281.757812 L 220.914062 281.648438 L 220.953125 281.640625 L 221.582031 281.53125 L 221.621094 281.523438 L 222.285156 281.402344 L 222.941406 281.277344 L 222.976562 281.273438 L 223.640625 281.140625 L 224.300781 281.003906 L 224.320312 281 L 224.984375 280.859375 L 225.65625 280.714844 C 233.015625 279.070312 240.070312 276.601562 246.714844 273.40625 C 251.109375 271.292969 255.324219 268.859375 259.328125 266.140625 C 259.789062 265.828125 260.335938 265.660156 260.894531 265.660156 C 264.984375 265.660156 282.625 265.660156 292.203125 265.660156 C 293.3125 265.65625 294.320312 266.316406 294.761719 267.335938 C 295.203125 268.355469 294.996094 269.539062 294.234375 270.351562 C 290.300781 274.503906 286.085938 278.386719 281.613281 281.96875 C 281.613281 281.96875 284.652344 291.105469 286.816406 297.613281 C 288.097656 301.457031 286.621094 305.683594 283.226562 307.894531 C 279.136719 310.519531 274.925781 312.949219 270.605469 315.167969 C 266.996094 316.996094 262.605469 316.164062 259.917969 313.140625 C 255.359375 308.019531 248.964844 300.820312 248.964844 300.820312 C 246.765625 301.675781 244.550781 302.46875 242.308594 303.199219 C 241.8125 303.46875 241.28125 303.691406 240.726562 303.863281 C 234.933594 305.628906 229.015625 306.980469 223.019531 307.898438 C 223.019531 307.898438 221.082031 317.332031 219.691406 324.042969 C 218.878906 328.007812 215.492188 330.925781 211.453125 331.144531 C 208.945312 331.269531 206.4375 331.328125 203.929688 331.328125 C 201.421875 331.328125 198.914062 331.269531 196.410156 331.144531 C 192.371094 330.925781 188.984375 328.007812 188.171875 324.042969 C 186.78125 317.332031 184.839844 307.898438 184.839844 307.898438 C 178.84375 306.980469 172.929688 305.628906 167.136719 303.863281 C 166.578125 303.691406 166.050781 303.46875 165.550781 303.199219 C 163.3125 302.46875 161.09375 301.675781 158.894531 300.820312 C 158.894531 300.820312 152.5 308.019531 147.941406 313.140625 C 145.253906 316.164062 140.863281 316.996094 137.253906 315.167969 C 132.929688 312.949219 128.722656 310.519531 124.632812 307.894531 C 121.238281 305.683594 119.765625 301.457031 121.046875 297.613281 C 123.207031 291.105469 126.246094 281.96875 126.246094 281.96875 C 119.109375 276.25 112.621094 269.765625 106.90625 262.628906 C 106.90625 262.628906 97.765625 265.667969 91.257812 267.820312 C 87.417969 269.09375 83.199219 267.625 80.992188 264.234375 C 78.355469 260.152344 75.921875 255.941406 73.695312 251.625 C 71.859375 248.007812 72.695312 243.613281 75.726562 240.921875 C 80.855469 236.371094 88.054688 229.976562 88.054688 229.976562 C 84.734375 221.457031 82.359375 212.597656 80.972656 203.558594 C 80.972656 203.558594 71.539062 201.617188 64.828125 200.230469 C 60.863281 199.414062 57.949219 196.03125 57.730469 191.988281 C 57.488281 187.136719 57.488281 182.273438 57.714844 177.421875 C 57.933594 173.375 60.855469 169.988281 64.824219 169.175781 C 71.539062 167.792969 80.972656 165.855469 80.972656 165.855469 C 82.359375 156.816406 84.734375 147.957031 88.054688 139.4375 C 88.054688 139.4375 80.855469 133.042969 75.738281 128.480469 C 72.710938 125.792969 71.875 121.40625 73.707031 117.792969 C 75.921875 113.472656 78.355469 109.261719 80.976562 105.171875 C 83.191406 101.777344 87.417969 100.304688 91.261719 101.582031 C 97.765625 103.746094 106.90625 106.785156 106.90625 106.785156 C 112.621094 99.648438 119.109375 93.160156 126.246094 87.445312 C 126.246094 87.445312 123.207031 78.304688 121.054688 71.796875 C 119.777344 67.957031 121.25 63.738281 124.640625 61.53125 C 128.722656 58.894531 132.929688 56.464844 137.25 54.234375 C 140.863281 52.402344 145.261719 53.234375 147.949219 56.265625 C 150.140625 58.734375 152.761719 61.6875 154.898438 64.070312 C 157.28125 66.753906 161.042969 67.746094 164.4375 66.582031 C 164.832031 66.449219 165.230469 66.320312 165.628906 66.191406 C 166.105469 65.9375 166.609375 65.726562 167.136719 65.5625 C 171.625 64.183594 176.1875 63.0625 180.804688 62.199219 C 182.796875 61.488281 184.453125 60.09375 185.503906 58.292969 L 188.160156 45.367188 C 188.972656 41.398438 192.359375 38.472656 196.410156 38.253906 C 198.914062 38.136719 201.421875 38.082031 203.929688 38.085938 C 206.4375 38.082031 208.949219 38.136719 211.453125 38.253906 C 215.496094 38.472656 218.890625 41.398438 219.703125 45.367188 L 222.359375 58.292969 C 223.40625 60.09375 225.066406 61.488281 227.058594 62.199219 C 231.675781 63.0625 236.234375 64.183594 240.722656 65.5625 C 241.253906 65.726562 241.757812 65.9375 242.234375 66.191406 C 242.628906 66.320312 243.027344 66.449219 243.425781 66.582031 C 246.816406 67.746094 250.578125 66.753906 252.964844 64.070312 C 255.097656 61.6875 257.71875 58.734375 259.910156 56.265625 C 262.601562 53.234375 267 52.402344 270.613281 54.234375 C 274.925781 56.464844 279.136719 58.894531 283.21875 61.53125 C 286.609375 63.738281 288.085938 67.957031 286.804688 71.796875 C 284.652344 78.304688 281.613281 87.445312 281.613281 87.445312 C 286.085938 91.027344 290.300781 94.910156 294.234375 99.066406 C 294.992188 99.875 295.199219 101.058594 294.753906 102.074219 C 294.3125 103.09375 293.3125 103.75 292.203125 103.75 C 282.625 103.753906 264.984375 103.753906 260.894531 103.753906 C 260.335938 103.753906 259.789062 103.585938 259.332031 103.269531 C 255.351562 100.570312 251.164062 98.152344 246.796875 96.046875 C 246.398438 95.855469 245.996094 95.664062 245.589844 95.476562 L 245.582031 95.472656 L 244.976562 95.191406 L 244.394531 94.929688 L 244.339844 94.90625 L 243.75 94.644531 L 243.183594 94.394531 L 243.09375 94.355469 L 242.511719 94.109375 L 241.953125 93.871094 L 241.839844 93.824219 L 241.265625 93.589844 L 240.707031 93.363281 L 240.574219 93.308594 L 240.035156 93.097656 L 240.011719 93.085938 L 239.453125 92.867188 L 239.304688 92.8125 L 238.820312 92.628906 L 238.734375 92.59375 L 238.1875 92.390625 L 238.027344 92.332031 L 237.574219 92.167969 L 237.449219 92.125 L 236.90625 91.929688 L 236.742188 91.875 L 236.308594 91.71875 L 236.160156 91.671875 L 235.621094 91.488281 L 235.457031 91.429688 L 235.027344 91.289062 L 234.863281 91.234375 L 234.320312 91.058594 L 234.160156 91.003906 L 233.738281 90.871094 L 233.558594 90.816406 L 233.015625 90.648438 L 232.863281 90.601562 L 232.433594 90.46875 L 232.25 90.414062 L 231.703125 90.253906 L 231.566406 90.214844 L 231.121094 90.085938 L 230.929688 90.03125 L 230.378906 89.878906 L 230.269531 89.847656 L 229.796875 89.71875 L 229.605469 89.667969 L 229.101562 89.535156 L 229.035156 89.515625 L 228.980469 89.503906 L 228.464844 89.371094 L 228.277344 89.320312 L 227.800781 89.203125 L 227.6875 89.175781 L 227.125 89.039062 L 226.9375 88.996094 L 226.476562 88.886719 L 226.34375 88.855469 L 225.777344 88.726562 L 225.59375 88.6875 L 225.140625 88.585938 L 224.992188 88.554688 L 224.421875 88.433594 L 224.25 88.398438 L 223.792969 88.304688 L 223.632812 88.269531 L 223.058594 88.15625 L 222.902344 88.125 L 222.433594 88.039062 L 222.269531 88.007812 L 221.691406 87.902344 L 221.546875 87.875 L 221.070312 87.792969 L 220.902344 87.761719 L 220.316406 87.664062 L 220.191406 87.644531 L 219.695312 87.5625 L 219.527344 87.535156 L 218.933594 87.445312 L 218.839844 87.429688 L 218.316406 87.355469 L 218.144531 87.328125 L 217.542969 87.246094 L 217.5 87.242188 L 216.929688 87.164062 L 216.761719 87.144531 L 216.191406 87.070312 L 216.144531 87.066406 L 215.535156 86.992188 L 215.371094 86.972656 L 214.828125 86.914062 L 214.746094 86.90625 L 214.136719 86.84375 L 213.972656 86.824219 L 213.449219 86.773438 L 213.339844 86.765625 L 212.726562 86.710938 L 212.574219 86.695312 L 212.058594 86.65625 L 211.929688 86.644531 L 211.316406 86.597656 L 211.171875 86.589844 L 210.65625 86.550781 L 210.511719 86.542969 L 209.898438 86.503906 L 209.765625 86.5 L 209.242188 86.472656 L 209.09375 86.464844 L 208.472656 86.433594 L 208.355469 86.429688 L 207.824219 86.410156 L 207.667969 86.402344 L 207.042969 86.382812 L 206.953125 86.378906 L 206.402344 86.367188 L 206.238281 86.363281 L 205.605469 86.351562 L 205.554688 86.351562 L 204.96875 86.347656 L 204.804688 86.34375 L 204.167969 86.339844 Z M 203.488281 86.34375 " fill-opacity="1" fill-rule="evenodd"/></g><g fill="#ffffff" fill-opacity="1"><g transform="translate(175.189387, 226.153309)"><g><path d="M 57.125 -82.984375 C 60.132812 -82.984375 62.632812 -82.765625 64.625 -82.328125 L 62.953125 -61.5 C 61.148438 -61.976562 58.960938 -62.21875 56.390625 -62.21875 C 49.296875 -62.21875 43.769531 -60.394531 39.8125 -56.75 C 35.851562 -53.113281 33.875 -48.015625 33.875 -41.453125 L 33.875 0 L 11.65625 0 L 11.65625 -81.453125 L 28.484375 -81.453125 L 31.765625 -67.765625 L 32.859375 -67.765625 C 35.390625 -72.328125 38.800781 -76.003906 43.09375 -78.796875 C 47.394531 -81.585938 52.070312 -82.984375 57.125 -82.984375 Z M 57.125 -82.984375 "/></g></g></g></svg>