<svg xmlns="http://www.w3.org/2000/svg" xmlns:xlink="http://www.w3.org/1999/xlink" width="500" zoomAndPan="magnify" viewBox="0 0 375 374.999991" height="500" preserveAspectRatio="xMidYMid meet" version="1.0"><defs><g/><clipPath id="eb4a9f1b38"><path d="M 35.453125 0 L 339.203125 0 L 339.203125 375 L 35.453125 375 Z M 35.453125 0 " clip-rule="nonzero"/></clipPath></defs><g clip-path="url(#eb4a9f1b38)"><path fill="#3551b9" d="M 222.25 61.703125 L 221.960938 61.707031 L 221.378906 61.710938 L 221.039062 61.714844 L 220.5 61.726562 L 220.148438 61.734375 L 219.625 61.75 L 219.273438 61.757812 L 218.742188 61.777344 L 218.398438 61.789062 L 217.835938 61.808594 L 217.535156 61.824219 L 216.820312 61.855469 L 216.667969 61.863281 L 215.8125 61.910156 L 215.554688 61.925781 L 214.949219 61.960938 L 214.621094 61.984375 C 214.621094 61.984375 214.234375 62.011719 214.085938 62.019531 C 213.96875 62.03125 213.855469 62.035156 213.738281 62.046875 C 213.59375 62.058594 213.367188 62.074219 213.222656 62.085938 C 213.105469 62.09375 212.988281 62.105469 212.867188 62.113281 C 212.726562 62.125 212.496094 62.144531 212.355469 62.15625 C 212.242188 62.164062 212.125 62.175781 212.007812 62.1875 C 211.863281 62.195312 211.617188 62.222656 211.472656 62.234375 C 211.363281 62.242188 211.261719 62.253906 211.15625 62.265625 C 211 62.277344 210.675781 62.3125 210.53125 62.324219 C 210.457031 62.332031 210.378906 62.339844 210.300781 62.347656 C 210.121094 62.363281 209.632812 62.417969 209.457031 62.4375 C 209.382812 62.441406 209.304688 62.453125 209.234375 62.460938 C 209.09375 62.476562 208.765625 62.515625 208.609375 62.53125 C 208.5 62.542969 208.394531 62.558594 208.289062 62.566406 C 208.144531 62.585938 207.90625 62.613281 207.761719 62.632812 C 207.644531 62.644531 207.523438 62.660156 207.410156 62.675781 C 207.269531 62.691406 207.054688 62.71875 206.914062 62.738281 C 206.792969 62.753906 206.671875 62.765625 206.550781 62.785156 C 206.410156 62.800781 206.199219 62.832031 206.0625 62.847656 C 205.941406 62.867188 205.824219 62.882812 205.703125 62.898438 C 205.5625 62.921875 205.339844 62.949219 205.199219 62.96875 C 205.089844 62.988281 204.976562 63.003906 204.859375 63.019531 C 204.714844 63.042969 204.449219 63.082031 204.308594 63.101562 C 204.210938 63.117188 204.117188 63.128906 204.023438 63.144531 C 203.835938 63.171875 203.363281 63.246094 203.195312 63.273438 C 203.136719 63.285156 203.074219 63.289062 203.015625 63.300781 C 202.875 63.328125 202.523438 63.382812 202.359375 63.40625 C 202.253906 63.425781 202.144531 63.445312 202.039062 63.460938 C 201.902344 63.488281 201.671875 63.527344 201.53125 63.550781 C 201.410156 63.570312 201.292969 63.59375 201.175781 63.609375 C 201.035156 63.636719 200.835938 63.671875 200.695312 63.695312 C 200.574219 63.71875 200.449219 63.742188 200.328125 63.765625 C 200.191406 63.789062 200.003906 63.824219 199.863281 63.851562 C 199.738281 63.875 199.617188 63.894531 199.496094 63.921875 C 199.355469 63.945312 199.160156 63.984375 199.023438 64.011719 C 198.90625 64.035156 198.789062 64.054688 198.667969 64.082031 C 198.523438 64.109375 198.304688 64.152344 198.167969 64.179688 C 198.0625 64.203125 197.949219 64.222656 197.84375 64.246094 C 197.679688 64.28125 197.335938 64.351562 197.203125 64.378906 C 197.140625 64.390625 197.070312 64.40625 197.023438 64.417969 C 196.996094 64.421875 196.964844 64.429688 196.933594 64.433594 C 196.800781 64.464844 196.390625 64.550781 196.21875 64.589844 C 196.109375 64.613281 196 64.636719 195.894531 64.660156 C 195.757812 64.691406 195.542969 64.742188 195.398438 64.773438 C 195.277344 64.796875 195.160156 64.824219 195.039062 64.855469 C 194.90625 64.882812 194.722656 64.925781 194.585938 64.957031 C 194.460938 64.984375 194.335938 65.015625 194.214844 65.046875 C 194.074219 65.078125 193.902344 65.117188 193.769531 65.148438 C 193.644531 65.183594 193.519531 65.210938 193.394531 65.242188 C 193.253906 65.273438 193.085938 65.316406 192.949219 65.347656 C 192.824219 65.382812 192.703125 65.410156 192.578125 65.441406 C 192.441406 65.472656 192.253906 65.523438 192.121094 65.554688 C 192 65.589844 191.886719 65.617188 191.769531 65.644531 C 191.625 65.683594 191.382812 65.75 191.246094 65.785156 C 191.148438 65.808594 191.058594 65.832031 190.960938 65.855469 C 190.785156 65.90625 190.367188 66.015625 190.179688 66.066406 C 190.078125 66.09375 189.972656 66.121094 189.863281 66.152344 C 189.734375 66.191406 189.523438 66.246094 189.378906 66.285156 C 189.261719 66.316406 189.140625 66.355469 189.023438 66.386719 C 188.886719 66.425781 188.714844 66.472656 188.578125 66.511719 C 188.457031 66.546875 188.332031 66.582031 188.210938 66.617188 C 188.078125 66.65625 187.914062 66.703125 187.78125 66.742188 C 187.65625 66.777344 187.53125 66.816406 187.40625 66.851562 C 187.273438 66.890625 187.109375 66.941406 186.976562 66.980469 C 186.855469 67.015625 186.734375 67.054688 186.613281 67.089844 C 186.476562 67.128906 186.296875 67.1875 186.167969 67.226562 C 186.054688 67.261719 185.933594 67.296875 185.816406 67.332031 C 185.679688 67.378906 185.460938 67.449219 185.328125 67.488281 C 185.230469 67.519531 185.125 67.550781 185.027344 67.582031 C 184.847656 67.640625 184.433594 67.773438 184.261719 67.828125 C 184.171875 67.855469 184.082031 67.890625 183.996094 67.917969 C 183.863281 67.960938 183.617188 68.042969 183.472656 68.089844 C 183.363281 68.125 183.253906 68.164062 183.144531 68.199219 C 183.011719 68.242188 182.820312 68.304688 182.6875 68.351562 C 182.574219 68.390625 182.457031 68.429688 182.339844 68.46875 C 182.210938 68.515625 182.03125 68.578125 181.902344 68.621094 C 181.785156 68.664062 181.554688 68.742188 181.554688 68.742188 L 181.113281 68.902344 L 180.773438 69.023438 L 180.316406 69.1875 L 179.996094 69.300781 L 179.488281 69.488281 L 179.222656 69.585938 L 178.453125 69.875 L 178.378906 69.90625 L 177.683594 70.171875 L 177.4375 70.269531 L 176.914062 70.476562 L 176.632812 70.585938 L 176.140625 70.785156 L 175.851562 70.898438 L 175.359375 71.101562 L 175.085938 71.214844 L 174.570312 71.429688 L 174.324219 71.53125 L 173.730469 71.785156 L 173.566406 71.855469 L 172.800781 72.1875 L 172.015625 72.535156 L 171.957031 72.558594 L 171.257812 72.875 L 171.109375 72.945312 L 170.492188 73.226562 L 170.328125 73.304688 L 169.71875 73.589844 L 169.5625 73.660156 L 168.925781 73.960938 L 168.8125 74.015625 L 168.070312 74.375 C 126.222656 94.808594 97.363281 137.789062 97.363281 187.457031 C 97.363281 237.164062 126.269531 280.175781 168.183594 300.589844 L 168.929688 300.949219 L 168.996094 300.980469 L 169.691406 301.3125 L 169.777344 301.351562 L 170.480469 301.679688 L 170.546875 301.710938 L 171.316406 302.0625 C 171.582031 302.183594 171.84375 302.300781 172.109375 302.417969 L 172.875 302.757812 L 173.015625 302.816406 L 173.625 303.082031 L 173.859375 303.179688 L 174.375 303.402344 L 174.65625 303.519531 L 175.140625 303.71875 L 175.433594 303.839844 L 175.90625 304.03125 L 176.203125 304.15625 L 176.683594 304.34375 L 176.972656 304.460938 L 177.53125 304.679688 L 177.753906 304.765625 L 178.492188 305.050781 L 178.820312 305.175781 L 179.257812 305.339844 L 179.628906 305.472656 L 180.023438 305.621094 L 180.410156 305.761719 L 180.796875 305.898438 L 181.191406 306.039062 L 181.570312 306.171875 L 181.972656 306.316406 L 182.339844 306.441406 L 182.75 306.582031 L 183.535156 306.84375 L 184.273438 307.085938 L 184.699219 307.222656 L 185.046875 307.335938 L 185.480469 307.472656 L 185.835938 307.582031 L 186.261719 307.714844 L 186.621094 307.824219 L 187.054688 307.953125 L 187.414062 308.058594 L 187.84375 308.1875 L 188.203125 308.292969 L 188.996094 308.519531 L 189.433594 308.640625 L 189.777344 308.738281 L 190.207031 308.855469 L 190.625 308.964844 L 190.980469 309.0625 L 191.410156 309.171875 L 191.785156 309.269531 L 192.210938 309.378906 L 192.59375 309.472656 L 193.015625 309.578125 L 193.402344 309.671875 L 193.820312 309.773438 L 194.214844 309.867188 L 194.632812 309.964844 L 195.03125 310.058594 L 195.445312 310.152344 L 195.878906 310.246094 L 196.257812 310.332031 L 197.035156 310.5 L 197.414062 310.574219 L 197.859375 310.667969 L 198.25 310.75 L 198.679688 310.835938 L 199.078125 310.914062 L 199.507812 310.996094 L 199.90625 311.070312 L 200.339844 311.148438 L 200.730469 311.21875 L 201.183594 311.300781 L 201.5625 311.367188 L 202.050781 311.449219 L 202.390625 311.507812 L 203.199219 311.640625 L 203.445312 311.679688 L 204.039062 311.773438 L 204.378906 311.820312 L 204.875 311.894531 L 205.242188 311.945312 L 205.71875 312.015625 L 206.089844 312.066406 L 206.566406 312.128906 L 206.9375 312.175781 L 207.425781 312.238281 L 207.78125 312.285156 L 208.304688 312.34375 L 208.625 312.382812 L 209.300781 312.460938 L 209.472656 312.476562 L 210.3125 312.566406 L 210.59375 312.59375 L 211.164062 312.652344 L 211.5 312.679688 L 212.019531 312.726562 L 212.375 312.757812 L 212.878906 312.800781 L 213.238281 312.828125 L 213.75 312.863281 L 214.097656 312.894531 L 214.636719 312.929688 L 214.960938 312.949219 L 215.578125 312.988281 L 215.816406 313.003906 L 216.675781 313.050781 L 216.867188 313.058594 L 217.539062 313.089844 L 217.851562 313.105469 L 218.40625 313.125 L 218.75 313.136719 L 219.277344 313.152344 L 219.632812 313.164062 L 220.152344 313.179688 L 220.503906 313.1875 L 221.042969 313.191406 L 221.378906 313.199219 L 221.964844 313.207031 L 222.25 313.210938 L 223.125 313.210938 C 223.125 313.210938 223.933594 313.210938 223.933594 313.210938 L 224.140625 313.207031 L 224.882812 313.199219 L 224.960938 313.199219 L 225.761719 313.1875 L 225.96875 313.179688 L 226.667969 313.164062 L 226.792969 313.160156 L 227.589844 313.132812 L 227.785156 313.125 L 228.464844 313.101562 L 228.617188 313.09375 L 229.410156 313.058594 L 229.59375 313.046875 L 230.261719 313.011719 L 230.433594 313.003906 L 231.226562 312.953125 L 231.382812 312.945312 L 232.058594 312.898438 L 232.238281 312.886719 L 233.035156 312.824219 L 233.15625 312.816406 L 233.855469 312.757812 L 234.039062 312.742188 L 234.839844 312.671875 L 234.910156 312.664062 L 235.648438 312.59375 L 235.824219 312.578125 L 236.632812 312.496094 L 237.4375 312.40625 L 237.605469 312.382812 L 238.40625 312.292969 L 239.21875 312.1875 L 239.371094 312.171875 L 240.175781 312.0625 L 240.996094 311.949219 L 241.125 311.933594 L 241.894531 311.816406 L 241.9375 311.8125 L 242.769531 311.683594 L 242.863281 311.667969 L 243.640625 311.542969 L 243.691406 311.53125 L 244.53125 311.394531 L 244.582031 311.382812 L 245.382812 311.246094 L 245.4375 311.234375 L 246.285156 311.082031 L 247.125 310.921875 L 247.167969 310.914062 L 248.015625 310.746094 L 248.859375 310.570312 L 248.886719 310.5625 L 249.734375 310.386719 L 250.59375 310.195312 C 260.003906 308.09375 269.023438 304.941406 277.515625 300.855469 C 283.132812 298.152344 288.523438 295.042969 293.640625 291.566406 C 294.234375 291.164062 294.929688 290.953125 295.644531 290.953125 C 300.871094 290.953125 323.425781 290.953125 335.671875 290.953125 C 337.089844 290.949219 338.378906 291.792969 338.941406 293.097656 C 339.507812 294.398438 339.242188 295.914062 338.269531 296.949219 C 333.242188 302.257812 327.851562 307.222656 322.132812 311.804688 C 322.132812 311.804688 326.019531 323.484375 328.785156 331.800781 C 330.421875 336.714844 328.535156 342.121094 324.195312 344.949219 C 318.96875 348.304688 313.585938 351.410156 308.0625 354.246094 C 303.445312 356.585938 297.835938 355.519531 294.398438 351.652344 C 288.570312 345.109375 280.390625 335.90625 280.390625 335.90625 C 277.582031 336.996094 274.75 338.011719 271.882812 338.941406 C 271.246094 339.289062 270.570312 339.574219 269.859375 339.792969 C 262.453125 342.050781 254.886719 343.78125 247.222656 344.953125 C 247.222656 344.953125 244.746094 357.011719 242.96875 365.59375 C 241.925781 370.664062 237.597656 374.390625 232.433594 374.671875 C 229.230469 374.832031 226.023438 374.910156 222.816406 374.90625 C 219.609375 374.910156 216.40625 374.832031 213.203125 374.671875 C 208.039062 374.390625 203.710938 370.664062 202.671875 365.59375 C 200.890625 357.011719 198.414062 344.953125 198.414062 344.953125 C 190.746094 343.78125 183.183594 342.050781 175.777344 339.792969 C 175.0625 339.574219 174.390625 339.289062 173.753906 338.941406 C 170.890625 338.011719 168.054688 336.996094 165.242188 335.90625 C 165.242188 335.90625 157.070312 345.109375 151.238281 351.652344 C 147.804688 355.519531 142.191406 356.585938 137.578125 354.246094 C 132.046875 351.410156 126.667969 348.304688 121.441406 344.949219 C 117.097656 342.121094 115.214844 336.714844 116.851562 331.800781 C 119.617188 323.484375 123.5 311.804688 123.5 311.804688 C 114.378906 304.492188 106.085938 296.203125 98.773438 287.074219 C 98.773438 287.074219 87.089844 290.960938 78.769531 293.710938 C 73.863281 295.34375 68.46875 293.460938 65.644531 289.128906 C 62.273438 283.910156 59.164062 278.527344 56.316406 273.007812 C 53.972656 268.386719 55.039062 262.769531 58.914062 259.328125 C 65.46875 253.507812 74.675781 245.332031 74.675781 245.332031 C 70.429688 234.441406 67.394531 223.113281 65.625 211.558594 C 65.625 211.558594 53.5625 209.078125 44.980469 207.300781 C 39.910156 206.261719 36.1875 201.933594 35.90625 196.765625 C 35.59375 190.5625 35.59375 184.347656 35.886719 178.144531 C 36.167969 172.96875 39.902344 168.636719 44.976562 167.597656 C 53.5625 165.832031 65.625 163.355469 65.625 163.355469 C 67.394531 151.800781 70.429688 140.472656 74.675781 129.582031 C 74.675781 129.582031 65.46875 121.40625 58.925781 115.574219 C 55.058594 112.136719 53.988281 106.527344 56.328125 101.910156 C 59.164062 96.386719 62.273438 91.003906 65.625 85.773438 C 68.457031 81.4375 73.859375 79.550781 78.773438 81.1875 C 87.089844 83.949219 98.773438 87.835938 98.773438 87.835938 C 106.085938 78.710938 114.378906 70.417969 123.5 63.109375 C 123.5 63.109375 119.617188 51.425781 116.863281 43.105469 C 115.230469 38.195312 117.117188 32.804688 121.449219 29.976562 C 126.667969 26.609375 132.046875 23.503906 137.570312 20.648438 C 142.191406 18.308594 147.8125 19.375 151.25 23.25 C 154.050781 26.40625 157.398438 30.179688 160.132812 33.226562 C 163.175781 36.65625 167.984375 37.925781 172.328125 36.441406 C 172.835938 36.269531 173.339844 36.101562 173.847656 35.9375 C 174.457031 35.613281 175.101562 35.347656 175.78125 35.132812 C 181.519531 33.371094 187.347656 31.9375 193.25 30.835938 C 195.796875 29.925781 197.917969 28.144531 199.261719 25.84375 L 202.65625 9.316406 C 203.695312 4.238281 208.027344 0.503906 213.203125 0.222656 C 216.40625 0.0703125 219.609375 0 222.816406 0.0078125 C 226.023438 0 229.230469 0.0703125 232.433594 0.222656 C 237.605469 0.503906 241.941406 4.238281 242.980469 9.316406 L 246.375 25.84375 C 247.714844 28.144531 249.839844 29.925781 252.386719 30.835938 C 258.289062 31.9375 264.121094 33.371094 269.859375 35.132812 C 270.535156 35.347656 271.179688 35.613281 271.789062 35.9375 C 272.292969 36.101562 272.804688 36.269531 273.308594 36.441406 C 277.648438 37.925781 282.457031 36.65625 285.503906 33.226562 C 288.234375 30.179688 291.585938 26.40625 294.386719 23.25 C 297.828125 19.375 303.449219 18.308594 308.066406 20.648438 C 313.585938 23.503906 318.96875 26.609375 324.1875 29.976562 C 328.519531 32.804688 330.40625 38.195312 328.769531 43.105469 C 326.019531 51.425781 322.132812 63.109375 322.132812 63.109375 C 327.851562 67.691406 333.242188 72.65625 338.265625 77.964844 C 339.234375 79.003906 339.5 80.511719 338.933594 81.8125 C 338.371094 83.117188 337.089844 83.957031 335.671875 83.957031 C 323.425781 83.960938 300.871094 83.960938 295.644531 83.960938 C 294.929688 83.960938 294.234375 83.742188 293.644531 83.339844 C 288.558594 79.890625 283.203125 76.800781 277.621094 74.109375 C 277.109375 73.863281 276.597656 73.617188 276.082031 73.378906 L 276.070312 73.371094 L 275.292969 73.015625 L 274.550781 72.679688 L 274.480469 72.648438 L 273.726562 72.3125 L 273 71.992188 L 272.886719 71.945312 L 272.144531 71.628906 L 271.429688 71.328125 L 271.28125 71.265625 L 270.550781 70.96875 L 269.835938 70.679688 L 269.664062 70.605469 L 268.976562 70.335938 L 268.945312 70.320312 L 268.234375 70.042969 L 268.042969 69.972656 L 267.421875 69.738281 L 267.3125 69.695312 L 266.613281 69.433594 L 266.410156 69.359375 L 265.828125 69.148438 L 265.671875 69.09375 L 264.976562 68.84375 L 264.765625 68.773438 L 264.210938 68.578125 L 264.023438 68.511719 L 263.332031 68.277344 L 263.121094 68.207031 L 262.578125 68.023438 L 262.367188 67.953125 L 261.671875 67.730469 L 261.464844 67.660156 L 260.925781 67.492188 L 260.695312 67.417969 L 260.003906 67.207031 L 259.808594 67.144531 L 259.257812 66.976562 L 259.023438 66.90625 L 258.324219 66.699219 L 258.148438 66.648438 L 257.578125 66.484375 L 257.335938 66.417969 L 256.632812 66.222656 L 256.488281 66.183594 L 255.886719 66.019531 L 255.640625 65.953125 L 254.996094 65.78125 L 254.910156 65.757812 L 254.84375 65.742188 L 254.183594 65.574219 L 253.941406 65.507812 L 253.332031 65.359375 L 253.191406 65.324219 L 252.472656 65.148438 L 252.234375 65.09375 L 251.640625 64.953125 L 251.46875 64.914062 L 250.746094 64.75 L 250.515625 64.699219 L 249.933594 64.570312 L 249.742188 64.53125 L 249.015625 64.375 L 248.796875 64.328125 L 248.210938 64.210938 L 248.007812 64.167969 L 247.273438 64.019531 L 247.070312 63.980469 L 246.476562 63.867188 L 246.265625 63.828125 L 245.523438 63.691406 L 245.339844 63.660156 L 244.730469 63.554688 L 244.515625 63.515625 L 243.765625 63.390625 L 243.609375 63.367188 L 242.976562 63.261719 L 242.757812 63.226562 L 242 63.109375 L 241.882812 63.089844 L 241.210938 62.996094 L 240.992188 62.964844 L 240.222656 62.855469 L 240.164062 62.847656 L 239.4375 62.75 L 239.21875 62.722656 L 238.492188 62.632812 L 238.433594 62.625 L 237.652344 62.53125 L 237.441406 62.507812 L 236.75 62.433594 L 236.644531 62.421875 L 235.863281 62.339844 L 235.660156 62.316406 L 234.984375 62.253906 L 234.847656 62.238281 L 234.066406 62.171875 L 233.867188 62.15625 L 233.207031 62.101562 L 233.042969 62.085938 L 232.261719 62.027344 L 232.074219 62.015625 L 231.414062 61.96875 L 231.234375 61.957031 L 230.445312 61.910156 L 230.277344 61.902344 L 229.609375 61.867188 L 229.417969 61.855469 L 228.625 61.820312 L 228.476562 61.8125 L 227.796875 61.789062 L 227.597656 61.777344 L 226.796875 61.75 L 226.683594 61.75 L 225.976562 61.730469 L 225.769531 61.726562 L 224.960938 61.710938 L 224.894531 61.710938 L 224.144531 61.707031 L 223.933594 61.703125 L 223.125 61.699219 Z M 222.25 61.703125 " fill-opacity="1" fill-rule="evenodd"/></g><g fill="#3551b9" fill-opacity="1"><g transform="translate(186.069249, 240.436796)"><g><path d="M 73.03125 -106.09375 C 76.875 -106.09375 80.070312 -105.8125 82.625 -105.25 L 80.484375 -78.609375 C 78.179688 -79.234375 75.382812 -79.546875 72.09375 -79.546875 C 63.03125 -79.546875 55.96875 -77.21875 50.90625 -72.5625 C 45.84375 -67.90625 43.3125 -61.382812 43.3125 -53 L 43.3125 0 L 14.90625 0 L 14.90625 -104.140625 L 36.421875 -104.140625 L 40.609375 -86.625 L 42.015625 -86.625 C 45.242188 -92.46875 49.601562 -97.171875 55.09375 -100.734375 C 60.59375 -104.304688 66.570312 -106.09375 73.03125 -106.09375 Z M 73.03125 -106.09375 "/></g></g></g></svg>